<?xml version="1.0" encoding="UTF-8" standalone="no"?>
<!-- Created with Inkscape (http://www.inkscape.org/) -->
<svg
   xmlns:dc="http://purl.org/dc/elements/1.1/"
   xmlns:cc="http://web.resource.org/cc/"
   xmlns:rdf="http://www.w3.org/1999/02/22-rdf-syntax-ns#"
   xmlns:svg="http://www.w3.org/2000/svg"
   xmlns="http://www.w3.org/2000/svg"
   xmlns:xlink="http://www.w3.org/1999/xlink"
   xmlns:sodipodi="http://sodipodi.sourceforge.net/DTD/sodipodi-0.dtd"
   xmlns:inkscape="http://www.inkscape.org/namespaces/inkscape"
   width="270"
   height="270"
   id="svg2"
   sodipodi:version="0.32"
   inkscape:version="0.44.1"
   sodipodi:docbase="/home/thp/src/wavbreaker-deb/wavbreaker-0.7.2/images"
   sodipodi:docname="wavbreaker-src.svg"
   version="1.0">
  <defs
     id="defs4">
    <linearGradient
       id="linearGradient9327">
      <stop
         style="stop-color:white;stop-opacity:0;"
         offset="0"
         id="stop9329" />
      <stop
         style="stop-color:white;stop-opacity:0.64948452;"
         offset="0.75"
         id="stop9337" />
      <stop
         style="stop-color:white;stop-opacity:0;"
         offset="1"
         id="stop9331" />
    </linearGradient>
    <linearGradient
       id="linearGradient8411">
      <stop
         style="stop-color:#86ff01;stop-opacity:1;"
         offset="0"
         id="stop8413" />
      <stop
         id="stop8419"
         offset="0.5"
         style="stop-color:#86ff01;stop-opacity:1;" />
      <stop
         style="stop-color:#86ff01;stop-opacity:0;"
         offset="1"
         id="stop8415" />
    </linearGradient>
    <linearGradient
       id="linearGradient8397">
      <stop
         style="stop-color:#01b0ff;stop-opacity:0;"
         offset="0"
         id="stop8399" />
      <stop
         id="stop8421"
         offset="0.5"
         style="stop-color:#01b0ff;stop-opacity:1;" />
      <stop
         id="stop8409"
         offset="1"
         style="stop-color:#01b0ff;stop-opacity:1;" />
    </linearGradient>
    <linearGradient
       inkscape:collect="always"
       xlink:href="#linearGradient8411"
       id="linearGradient9525"
       gradientUnits="userSpaceOnUse"
       gradientTransform="matrix(1.397379,0,0,0.990929,-379.0353,-122.7195)"
       x1="432.87054"
       y1="373.1705"
       x2="495.71429"
       y2="373.1705" />
    <linearGradient
       inkscape:collect="always"
       xlink:href="#linearGradient8397"
       id="linearGradient9528"
       gradientUnits="userSpaceOnUse"
       gradientTransform="matrix(1.087398,0,0,0.990929,-262.0648,-122.7195)"
       x1="293.72321"
       y1="380.67422"
       x2="377.28571"
       y2="380.67422" />
    <linearGradient
       inkscape:collect="always"
       xlink:href="#linearGradient9327"
       id="linearGradient9531"
       gradientUnits="userSpaceOnUse"
       gradientTransform="matrix(0.984804,-0.135379,0.173668,0.767681,16.4195,41.02756)"
       x1="292.46454"
       y1="384.19513"
       x2="545.96454"
       y2="384.19513" />
    <linearGradient
       inkscape:collect="always"
       xlink:href="#linearGradient8411"
       id="linearGradient9533"
       gradientUnits="userSpaceOnUse"
       gradientTransform="matrix(1.25505,0,0,0.889999,11.95907,-65.79023)"
       x1="432.87054"
       y1="373.1705"
       x2="495.71429"
       y2="373.1705" />
    <linearGradient
       inkscape:collect="always"
       xlink:href="#linearGradient8397"
       id="linearGradient9535"
       gradientUnits="userSpaceOnUse"
       gradientTransform="matrix(1.25505,0,0,0.889999,11.95907,-65.79023)"
       x1="293.72321"
       y1="380.67422"
       x2="377.28571"
       y2="380.67422" />
    <linearGradient
       inkscape:collect="always"
       xlink:href="#linearGradient8397"
       id="linearGradient10434"
       x1="57.578693"
       y1="469.50415"
       x2="158.59393"
       y2="469.50415"
       gradientUnits="userSpaceOnUse" />
    <linearGradient
       inkscape:collect="always"
       xlink:href="#linearGradient8411"
       id="linearGradient10438"
       gradientUnits="userSpaceOnUse"
       x1="57.578693"
       y1="469.50415"
       x2="158.59393"
       y2="469.50415"
       gradientTransform="translate(201.9493,-1.03045)" />
    <linearGradient
       inkscape:collect="always"
       xlink:href="#linearGradient8397"
       id="linearGradient10663"
       gradientUnits="userSpaceOnUse"
       x1="57.578693"
       y1="469.50415"
       x2="158.59393"
       y2="469.50415"
       gradientTransform="matrix(1,0,0,2.141115,-27.14285,-657.9699)" />
    <linearGradient
       inkscape:collect="always"
       xlink:href="#linearGradient9327"
       id="linearGradient10665"
       gradientUnits="userSpaceOnUse"
       gradientTransform="matrix(0.984804,-0.135379,0.173668,0.767681,-92.59287,32.25963)"
       x1="292.46454"
       y1="384.19513"
       x2="545.96454"
       y2="384.19513" />
    <linearGradient
       inkscape:collect="always"
       xlink:href="#linearGradient8411"
       id="linearGradient10667"
       gradientUnits="userSpaceOnUse"
       gradientTransform="matrix(1.25505,0,0,0.889999,-97.0533,-74.55808)"
       x1="432.87054"
       y1="373.1705"
       x2="495.71429"
       y2="373.1705" />
    <linearGradient
       inkscape:collect="always"
       xlink:href="#linearGradient8397"
       id="linearGradient10669"
       gradientUnits="userSpaceOnUse"
       gradientTransform="matrix(1.25505,0,0,0.889999,-97.0533,-74.55808)"
       x1="293.72321"
       y1="380.67422"
       x2="377.28571"
       y2="380.67422" />
  </defs>
  <sodipodi:namedview
     id="base"
     pagecolor="#ffffff"
     bordercolor="#666666"
     borderopacity="1.0"
     gridtolerance="10000"
     guidetolerance="10"
     objecttolerance="10"
     inkscape:pageopacity="0.0"
     inkscape:pageshadow="2"
     inkscape:zoom="0.9899495"
     inkscape:cx="2.2626254"
     inkscape:cy="59.761877"
     inkscape:document-units="px"
     inkscape:current-layer="layer1"
     showguides="true"
     inkscape:guide-bbox="true"
     inkscape:window-width="993"
     inkscape:window-height="674"
     inkscape:window-x="179"
     inkscape:window-y="70"
     width="270px"
     height="270px" />
  <metadata
     id="metadata7">
    <rdf:RDF>
      <cc:Work
         rdf:about="">
        <dc:format>image/svg+xml</dc:format>
        <dc:type
           rdf:resource="http://purl.org/dc/dcmitype/StillImage" />
      </cc:Work>
    </rdf:RDF>
  </metadata>
  <g
     inkscape:label="Layer 1"
     id="layer1"
     inkscape:groupmode="layer"
     transform="translate(-262.6929,-130.635)">
    <path
       style="fill:#ff2a2a;fill-opacity:1;stroke:none;stroke-width:15.89999962;stroke-miterlimit:4;stroke-dasharray:none;stroke-opacity:1"
       d="M 407.55516,182.31787 C 407.41769,182.31477 407.26573,182.32968 407.12374,182.34568 C 403.80321,182.71982 399.30448,188.265 397.201,197.00285 C 395.47553,204.17028 392.17972,212.42235 389.90602,215.30346 C 386.64148,219.44013 384.97202,217.59728 382.06196,206.6816 L 378.33603,192.80317 L 376.29658,207.09878 L 376.29658,335.28648 L 378.33603,342.99054 L 384.37596,332.03242 C 389.91606,322.12593 390.71513,321.77399 392.3769,328.30555 C 393.38723,332.27661 396.59034,334.96565 399.43656,334.28523 C 406.52114,332.59159 415.25296,341.32173 415.94831,350.80584 C 416.3655,356.49641 417.99322,354.79106 422.02745,344.54803 C 427.41698,330.86378 427.63035,330.72487 429.75385,339.84773 C 431.56512,347.62945 432.10808,347.01995 432.65616,335.84273 C 433.01973,328.42763 435.07019,323.11839 437.32337,324.10587 C 439.57651,325.09336 442.10826,322.7189 442.9711,318.8215 C 443.61277,315.9227 445.24127,318.45976 446.93235,324.55087 L 446.93235,209.18472 C 446.85066,209.47956 446.78265,209.70347 446.69703,210.01909 C 443.75343,220.87058 443.7765,220.7785 437.7548,202.17598 L 431.67565,183.43037 L 427.12609,200.61848 C 423.12914,215.64685 422.25417,216.53544 420.92928,207.65503 C 420.09485,202.06233 417.55446,197.50348 415.28156,197.50348 C 413.00864,197.50348 411.12421,193.91115 411.12421,189.46567 C 411.12421,184.58405 409.61708,182.36429 407.55516,182.31787 z "
       id="rect3821"
       inkscape:export-filename="/home/thp/path9359.png"
       inkscape:export-xdpi="90"
       inkscape:export-ydpi="90" />
    <path
       style="fill:url(#linearGradient10669);fill-opacity:1;stroke:none;stroke-opacity:1"
       d="M 331.59104,164.75628 L 330.61053,192.9025 C 329.94086,212.43096 328.36036,219.63099 325.39423,216.37623 C 323.04184,213.79499 321.03663,207.46562 320.96234,202.30312 C 320.86437,195.49854 319.84519,194.17746 316.96186,197.40813 C 313.96921,200.76127 312.47839,199.59231 311.0396,192.70782 C 309.90149,187.26245 308.84551,190.47629 308.41184,200.71781 C 307.47415,222.86273 299.30615,233.46066 298.76364,213.23342 C 298.48078,202.6882 297.379,200.73135 294.64551,205.41812 C 291.9413,210.05473 290.58762,207.21066 289.38999,194.46 L 287.8604,177.27189 L 282.76176,188.2022 L 277.66312,199.16031 L 277.27091,187.42345 C 276.95493,178.10674 274.18564,174.60133 271.58397,176.49314 L 271.58397,347.51205 C 271.86593,347.11847 272.14711,346.69945 272.44682,346.20487 C 275.40904,341.31638 276.56691,343.04891 277.38858,354.04798 C 278.40965,367.7164 278.42821,367.57224 281.27139,349.34768 C 282.88214,339.02268 284.63326,334.78456 285.11498,339.94706 C 285.93465,348.73138 286.27592,348.94609 291.31178,343.08987 C 294.2713,339.6482 299.04398,331.89687 301.82283,325.87395 L 306.92147,314.91583 L 307.86275,330.57426 C 308.73864,344.49013 309.14171,345.18158 312.13777,336.83206 C 313.99018,331.66957 315.85114,329.20196 316.13824,331.353 C 316.42533,333.50403 319.01605,334.89821 321.94284,334.468 C 325.12577,334.00016 328.33756,339.06497 329.94379,346.98362 C 333.65852,365.2978 338.66954,367.34807 339.0429,350.71049 C 339.36175,336.50111 346.5161,318.21072 347.1615,329.99019 C 347.33207,333.10321 349.44127,334.75279 351.86794,333.68925 C 354.29816,332.62414 356.52125,335.10558 356.69203,339.08487 C 356.98495,345.90989 357.11025,345.85868 360.69251,339.94706 C 364.0091,334.47387 364.63907,334.88009 365.5166,343.08987 C 366.24427,349.8982 367.32236,348.17927 369.51707,336.83206 C 372.41388,321.85506 372.69291,322.24164 374.06663,346.20487 C 374.69467,357.16044 375.60921,363.05684 376.45907,362.25266 L 376.45907,187.0897 C 375.60704,181.41856 375.07179,185.63338 374.06663,202.30312 C 372.61734,226.33757 372.4225,226.69746 369.51707,211.67592 C 367.22188,199.80949 366.28146,198.29828 365.35972,205.41812 L 364.14389,214.79092 L 360.69251,205.41812 L 357.35878,196.04531 L 356.80969,206.97562 C 356.363,215.27216 355.10829,216.7891 351.86794,213.23342 C 348.5534,209.59641 347.49282,210.65964 347.04384,217.93373 C 346.7147,223.26594 345.56235,224.96574 344.41608,221.85529 C 343.30633,218.84383 340.64438,216.37623 338.49381,216.37623 C 336.3432,216.37623 333.93816,204.76313 333.12063,190.56626 L 331.59104,164.75628 z "
       id="path2932"
       inkscape:export-filename="/home/thp/path9359.png"
       inkscape:export-xdpi="90"
       inkscape:export-ydpi="90" />
    <path
       style="fill:url(#linearGradient10667);fill-opacity:1;stroke:none;stroke-opacity:1"
       d="M 467.94883,162.59882 C 467.61244,162.64586 467.34528,170.30076 466.81145,186.54536 C 465.91702,213.76109 465.03812,217.17891 459.79101,212.2719 C 455.27696,208.05049 453.08233,207.63584 451.35864,210.68659 C 450.09178,212.92885 448.69281,211.17836 448.1818,206.87628 C 447.69612,202.78773 447.166,201.61343 446.22078,203.62222 L 446.22078,332.4218 C 450.12782,352.29832 450.16334,352.28361 452.61369,339.18023 C 455.82443,322.01051 464.81678,325.40792 467.20365,344.65928 C 468.65786,356.38836 469.06932,355.46125 469.71375,338.79085 C 470.38396,321.45539 471.25443,319.27305 477.00872,322.65962 C 480.64873,324.80186 483.94014,330.26429 484.3037,334.78586 C 484.92921,342.56425 485.13289,342.47086 487.206,333.58992 C 489.38529,324.25415 489.39942,324.2526 492.46153,332.03242 C 495.2909,339.2211 496.09345,338.71421 501.56064,325.77461 C 506.50272,314.07779 507.77564,313.01857 509.01249,319.51681 C 512.10436,335.76088 514.90474,341.66577 519.05289,339.84773 C 521.40837,338.81537 523.58876,339.84794 523.75933,342.10054 C 523.84597,343.245 524.35534,343.5185 525.09282,343.07397 L 525.09282,172.47225 C 523.94363,174.63833 522.97548,178.00544 522.50428,182.62381 C 521.62795,191.21218 519.16359,195.64463 515.60151,195.13942 C 511.82093,194.60325 509.91306,199.53799 509.4047,210.79784 C 508.7945,224.31105 508.35761,225.15043 506.93382,215.49815 C 505.98196,209.04502 503.52277,203.76129 501.40376,203.76129 C 499.28473,203.76128 496.64936,199.87171 495.63837,195.13942 C 494.62744,190.40713 493.49192,194.64524 493.12827,204.54004 C 492.39029,224.6234 486.189,228.48775 481.71516,211.57659 C 480.10914,205.50587 477.01298,201.32278 474.81239,202.28723 C 472.59455,203.25921 470.11731,193.08996 469.28232,179.59225 C 468.59222,168.43699 468.24565,162.55731 467.94883,162.59882 z "
       id="path2930"
       inkscape:export-filename="/home/thp/path9359.png"
       inkscape:export-xdpi="90"
       inkscape:export-ydpi="90" />
    <path
       style="fill:black;fill-opacity:1;stroke:none;stroke-width:2;stroke-miterlimit:4;stroke-dasharray:none;stroke-opacity:1"
       d="M 517.71877,342.19936 L 517.71877,340.41936 C 517.51245,340.48441 517.2889,340.47179 517.09125,340.55843 C 516.72884,340.71728 516.51594,340.75991 516.34606,340.75311 C 516.1762,340.74632 516.00707,340.68084 515.71854,340.5028 C 515.14149,340.14674 514.292,339.21094 513.5222,337.63812 C 511.98263,334.49247 510.51457,328.96811 508.97264,320.86719 C 508.65903,319.21941 508.35695,318.04648 507.87448,317.22376 C 507.63327,316.81241 507.37415,316.36203 506.50176,316.16689 C 506.0656,316.06932 505.55234,316.12668 505.20749,316.25032 C 504.86267,316.37397 504.62806,316.55123 504.42309,316.72314 C 503.6032,317.41077 502.99716,318.44366 502.14831,320.11626 C 501.29948,321.78886 500.28819,324.05522 499.04991,326.98594 C 497.68491,330.21664 496.62658,332.66299 495.7554,334.38406 C 494.99315,335.89 494.41757,336.59888 494.10815,336.91499 C 493.66111,336.29057 493.07357,335.02748 492.38245,333.27156 C 491.61689,331.32644 491.03115,329.85044 490.5391,328.84937 C 490.2931,328.34886 490.08438,327.98551 489.79391,327.65344 C 489.6487,327.48741 489.49486,327.31172 489.16639,327.15281 C 488.83794,326.99391 488.17987,326.90409 487.71524,327.04156 C 486.78599,327.31651 486.73619,327.70694 486.53863,328.09844 C 486.3411,328.48994 486.17294,328.98591 485.98954,329.60031 C 485.62278,330.82912 485.24014,332.57841 484.69527,334.91249 C 484.5314,335.61464 484.44454,335.90607 484.30307,336.49781 C 484.29224,336.36479 484.27495,336.32986 484.26385,336.19187 C 483.87908,331.40619 480.69818,325.90246 476.53745,323.45375 C 475.03596,322.57007 473.81515,321.89759 472.26244,321.89626 C 471.4861,321.8956 470.67861,322.14856 470.14454,322.56376 C 469.61049,322.97896 469.2549,323.50545 468.96793,324.14907 C 467.8201,326.72352 467.49928,331.54743 467.1638,340.22468 C 467.08728,342.2048 467.00052,343.24664 466.92848,344.78592 C 466.31338,340.56336 465.40958,337.04372 464.26149,334.46749 C 462.99177,331.61829 461.62295,329.72593 459.51584,328.93281 C 458.4623,328.53626 457.14426,328.55694 456.10367,328.98844 C 455.06311,329.41994 454.24534,330.14575 453.51513,331.13 C 452.05473,333.09851 450.87718,336.18073 450.06374,340.53061 C 449.55288,343.26264 449.19864,345.03442 448.84791,346.53811 C 448.71773,346.03641 448.60377,345.68477 448.45571,345.03623 C 447.86883,342.46533 447.15766,338.74112 446.18093,333.77218 L 446.18093,323.67625 L 446.18093,323.565 L 446.14171,323.48157 C 445.41913,321.27503 444.8404,319.83621 444.02382,318.94813 C 443.8197,318.72612 443.60113,318.50606 443.12175,318.33626 C 442.6424,318.16646 441.79402,318.22557 441.39606,318.47532 C 440.60015,318.97483 440.60726,319.45524 440.45477,320.14407 C 440.04649,321.98838 439.20213,323.45904 438.37609,324.2325 C 437.96309,324.61924 437.56484,324.80908 437.31714,324.87219 C 437.06947,324.93531 436.97217,324.9404 436.68962,324.81657 C 436.15787,324.58352 435.41719,324.50376 434.80705,324.64969 C 434.19693,324.79563 433.74623,325.07681 433.39511,325.40063 C 432.6929,326.04827 432.22954,326.92009 431.78708,328.04281 C 430.90221,330.28827 430.2849,333.51832 430.10061,337.27655 C 430.00905,339.14409 429.92276,340.27997 429.82607,341.55968 C 429.78488,341.38621 429.75096,341.35313 429.70841,341.1703 C 429.17692,338.88687 428.77101,337.19404 428.33569,336.05281 C 428.11806,335.4822 427.94702,335.04013 427.51207,334.63437 C 427.29462,334.4315 426.93103,334.19493 426.37468,334.13374 C 425.81835,334.07257 425.29468,334.26127 425.00197,334.43968 C 424.41656,334.79651 424.16666,335.18426 423.82536,335.74687 C 423.48409,336.30949 423.13912,337.03252 422.72719,337.94405 C 421.90336,339.76714 420.85895,342.36503 419.51113,345.78717 C 418.50604,348.33916 417.67505,350.33852 416.96181,351.82248 C 416.59054,352.595 416.39051,352.79061 416.09896,353.26873 C 416.02849,352.86479 415.94453,352.78015 415.90286,352.21185 C 415.54211,347.29105 413.13801,342.6221 409.82371,339.30687 C 408.16659,337.64926 406.26327,336.31374 404.21521,335.49656 C 402.16717,334.67939 399.89825,334.39747 397.74386,334.91249 C 396.93008,335.10705 395.97406,334.86254 394.88077,333.93906 C 393.78751,333.01559 392.80428,331.45867 392.33145,329.60031 C 391.91257,327.95379 391.54479,326.73955 391.0764,325.87344 C 390.84224,325.44039 390.62715,325.07527 390.05668,324.76094 C 389.77147,324.60378 389.34289,324.48223 388.91929,324.48282 C 388.49571,324.48341 388.14175,324.6027 387.86034,324.73313 C 386.73472,325.25487 386.21605,326.06918 385.31102,327.43094 C 384.40602,328.79271 383.28676,330.67855 381.89885,333.16031 L 377.46696,341.19811 L 376.40801,337.1653 L 373.89791,337.33218 L 373.89791,345.75936 C 373.61626,340.92546 373.38232,336.66381 373.15272,333.91124 C 373.01989,332.31851 372.85893,331.08091 372.7213,330.12875 C 372.5837,329.17659 372.49469,328.56386 372.25066,328.07063 C 372.18967,327.94732 372.13435,327.83604 371.97612,327.68125 C 371.8179,327.52647 371.44937,327.25281 370.87795,327.23625 C 370.30655,327.2197 369.91554,327.4537 369.74056,327.59781 C 369.5656,327.74193 369.50101,327.86997 369.4268,327.98719 C 369.13,328.4561 368.95421,329.00876 368.72083,329.87844 C 368.25409,331.6178 367.68059,334.41989 366.95592,338.16655 C 366.40856,340.99664 365.95939,343.21326 365.54398,344.84155 C 365.52338,344.66963 365.48526,344.66445 365.46554,344.47999 C 365.2454,342.4201 365.04297,340.85007 364.7988,339.69624 C 364.67673,339.11933 364.53378,338.64592 364.36738,338.24999 C 364.20099,337.85407 364.08375,337.51898 363.58297,337.19312 C 363.3326,337.03019 362.90587,336.87028 362.4848,336.85937 C 362.06376,336.84846 361.72049,336.9637 361.46507,337.08187 C 360.95427,337.3182 360.68028,337.59339 360.3669,337.94405 C 359.74017,338.64537 359.08609,339.6777 358.24901,341.05905 C 357.62869,342.08278 357.21909,342.66091 356.79786,343.31186 C 356.73454,342.53476 356.69491,341.75903 356.64098,340.5028 C 356.55081,338.40142 355.9518,336.67118 354.87606,335.46874 C 354.33821,334.86754 353.66421,334.37144 352.75817,334.13374 C 351.85214,333.89606 350.76083,334.00463 349.89508,334.38406 C 349.48103,334.56555 349.2077,334.60004 348.99302,334.57874 C 348.77835,334.55746 348.55789,334.48535 348.28705,334.27281 C 347.7454,333.84773 347.1883,332.82853 347.11044,331.40812 C 347.0278,329.89936 346.84601,328.8509 346.52214,328.09844 C 346.36022,327.72222 346.19723,327.39635 345.73773,327.09719 C 345.27826,326.79803 344.31238,326.73444 343.77672,326.93031 C 342.70542,327.32206 342.42732,327.90243 341.93336,328.71031 C 341.43942,329.5182 340.96941,330.58089 340.48221,331.82531 C 338.53346,336.80298 336.64344,344.95174 336.48174,352.15623 C 336.38914,356.28367 336.00629,359.22713 335.46201,360.97278 C 335.23547,361.69944 334.98577,362.08094 334.79527,362.33559 C 334.63358,362.19837 334.50431,362.11385 334.20696,361.6681 C 333.77266,361.01699 333.28189,360.05456 332.79503,358.83122 C 331.82132,356.38456 330.81623,352.87107 329.89273,348.31811 C 329.07822,344.30252 327.84445,340.9901 326.3629,338.66718 C 325.62216,337.50572 324.84618,336.57069 323.89202,335.91374 C 322.93788,335.25681 321.67889,334.8638 320.40141,335.05156 C 318.14644,335.38303 316.31239,334.40228 316.08718,332.71531 C 316.04427,332.39359 315.99787,332.14303 315.81264,331.85312 C 315.72005,331.70818 315.59681,331.53124 315.34199,331.38031 C 315.08721,331.22939 314.65203,331.1156 314.28305,331.13 C 313.5451,331.15881 313.24277,331.44576 312.98878,331.65843 C 312.7348,331.87112 312.53121,332.09796 312.32203,332.38156 C 311.48534,333.51596 310.55505,335.43789 309.61583,338.0553 C 309.16544,339.31052 308.89303,339.91128 308.55688,340.7253 C 308.52117,340.45418 308.47391,340.29007 308.43922,339.97436 C 308.23393,338.10557 308.03051,335.46845 307.81169,331.99218 L 306.87041,316.33376 L 304.43875,316.08345 L 299.34011,327.04156 C 296.5944,332.99274 291.78245,340.76517 288.94673,344.0628 C 287.69284,345.52098 286.70906,346.6176 286.04442,347.20561 C 285.98408,347.25903 285.98229,347.24436 285.92676,347.28905 C 285.83454,347.03158 285.73849,346.73218 285.65222,346.2878 C 285.43635,345.17566 285.26849,343.52944 285.06392,341.33718 C 285.0017,340.67015 284.90316,340.14347 284.78938,339.72405 C 284.67562,339.30464 284.73779,339.00967 284.08341,338.58374 C 283.75624,338.37078 282.92918,338.26154 282.47538,338.41687 C 282.0216,338.5722 281.87034,338.75618 281.73019,338.91749 C 281.4499,339.24012 281.29213,339.56811 281.10267,340.02999 C 280.34484,341.87751 279.51904,345.52569 278.71023,350.70998 C 278.47646,352.2085 278.33895,353.00821 278.16114,354.1031 L 278.16114,365.72872 C 278.22239,365.67308 278.40014,365.60598 278.43569,365.56184 C 278.63328,365.31652 278.66912,365.12868 278.74945,364.89434 C 278.8298,364.66001 278.90289,364.40126 278.98477,364.05997 C 279.14854,363.37738 279.32401,362.43849 279.53385,361.25091 C 279.95358,358.87576 280.50954,355.46079 281.22033,350.90467 C 281.77726,347.33508 282.30832,345.63472 282.82836,343.70124 C 282.93746,344.67361 283.04979,345.86046 283.18134,346.53811 C 283.29937,347.14597 283.42855,347.64792 283.61277,348.06779 C 283.79701,348.48768 283.98612,348.8685 284.59327,349.18029 C 284.89687,349.3362 285.33953,349.44405 285.73066,349.43061 C 286.12182,349.41718 286.44971,349.31907 286.71117,349.20811 C 287.23411,348.98618 287.5848,348.69025 288.00544,348.31811 C 288.84676,347.57383 289.8006,346.47835 291.06462,345.00842 C 294.14808,341.42275 298.9206,333.69248 301.73255,327.59781 L 304.67407,321.31219 L 305.3016,332.07562 C 305.52078,335.55732 305.71887,338.19966 305.92912,340.11343 C 306.03427,341.07032 306.15591,341.84205 306.2821,342.44967 C 306.40832,343.05731 306.47843,343.48843 306.75275,343.89592 C 306.88994,344.09968 307.10215,344.37252 307.69403,344.53561 C 308.28594,344.69871 308.98237,344.47081 309.26285,344.2853 C 309.82384,343.91428 309.94518,343.57787 310.20413,343.08936 C 310.72208,342.11235 311.2958,340.59515 312.04749,338.5003 C 312.81216,336.36939 313.52221,335.06639 314.12616,334.07812 C 315.19527,335.9919 317.9194,337.21571 320.91128,336.77593 C 321.22532,336.72978 321.53366,336.78453 322.12711,337.19312 C 322.72058,337.60172 323.42731,338.35422 324.08812,339.3903 C 325.40976,341.46249 326.59093,344.66537 327.38263,348.56842 C 328.31655,353.17257 329.34108,356.76316 330.36337,359.33185 C 330.87454,360.6162 331.40339,361.6263 331.93218,362.41903 C 332.461,363.21177 332.91782,363.80399 333.81476,364.17122 C 334.26325,364.35484 334.90653,364.43664 335.46201,364.31028 C 336.01752,364.18393 336.39045,363.92498 336.67784,363.64278 C 337.25267,363.07839 337.58548,362.35062 337.89367,361.36216 C 338.51007,359.38525 338.89778,356.37539 338.99184,352.18404 C 339.14908,345.17918 341.0052,337.07314 342.87465,332.29812 C 343.34203,331.10437 343.82869,330.11818 344.24736,329.43344 C 344.37972,329.96174 344.54399,330.43528 344.60034,331.46375 C 344.69314,333.15639 345.28148,334.52887 346.4437,335.44093 C 347.02483,335.89698 347.77143,336.24477 348.64003,336.33093 C 349.50867,336.4171 350.42932,336.23622 351.22857,335.88593 C 351.57799,335.73282 351.69569,335.75013 351.89532,335.80249 C 352.09497,335.85487 352.41515,336.03096 352.75817,336.41437 C 353.44423,337.18121 354.05028,338.68052 354.13088,340.55843 C 354.20423,342.26666 354.2513,343.54214 354.3662,344.45217 C 354.42368,344.90719 354.52063,345.27119 354.64074,345.59248 C 354.70082,345.75314 354.76776,345.91701 354.91528,346.09311 C 355.06283,346.26921 355.32474,346.4969 355.81735,346.59373 C 356.30998,346.69057 356.80944,346.57853 357.0724,346.45467 C 357.33538,346.33082 357.47905,346.19578 357.62148,346.0653 C 357.90637,345.80434 358.12934,345.50758 358.40589,345.11967 C 358.95901,344.34387 359.66665,343.23357 360.56301,341.75436 C 361.249,340.62237 361.7367,339.9145 362.17104,339.36249 C 362.22718,339.5597 362.27334,339.68862 362.32792,339.94655 C 362.55232,341.00686 362.73685,342.57405 362.95544,344.61905 C 363.13947,346.34048 363.32701,347.49383 363.62219,348.26248 C 363.69601,348.45465 363.7618,348.6376 363.89673,348.81873 C 364.03169,348.99987 364.24731,349.23618 364.83802,349.37498 C 365.42876,349.51379 366.07541,349.2819 366.32839,349.09686 C 366.5814,348.91183 366.68761,348.77125 366.79903,348.59623 C 367.24475,347.89619 367.58813,346.84795 368.01486,345.1753 C 368.44162,343.50265 368.91604,341.23257 369.46602,338.38905 C 369.92398,336.02148 370.22477,334.77261 370.56418,333.21593 C 370.59251,333.52596 370.61412,333.68085 370.64262,334.02249 C 370.90612,337.18113 371.1621,341.68873 371.50547,347.67842 C 371.82018,353.16727 372.22384,357.41343 372.64286,360.19403 C 372.8524,361.58435 373.06358,362.58236 373.30961,363.28122 C 373.43265,363.63065 373.48937,363.90258 373.81947,364.22684 C 373.98455,364.38898 374.33709,364.65232 374.95686,364.67184 C 375.57665,364.69138 375.99303,364.39684 376.17269,364.22684 L 376.40801,364.00434 L 376.40801,363.69841 L 376.40801,346.92748 L 376.60411,347.67842 L 378.21214,344.78592 L 384.25207,333.82781 C 385.63426,331.35633 386.73091,329.496 387.5858,328.20969 C 388.21554,327.26218 388.53287,326.99885 388.80163,326.73563 C 389.10899,327.36412 389.47549,328.42047 389.86057,329.93406 C 390.39814,332.04679 391.48659,333.83568 392.95898,335.07937 C 394.43139,336.32307 396.49585,337.06712 398.52826,336.58124 C 399.9162,336.24946 401.39595,336.41429 402.99938,337.05405 C 404.60283,337.69383 406.28596,338.8372 407.78425,340.33593 C 410.78087,343.33338 413.05819,347.75981 413.39276,352.3231 C 413.49946,353.77803 413.6384,354.72855 414.0595,355.46591 C 414.1648,355.65027 414.28098,355.83747 414.53015,356.02216 C 414.77934,356.20686 415.22812,356.38915 415.70676,356.38372 C 416.66405,356.37288 417.02859,355.96903 417.35401,355.63279 C 418.00487,354.96031 418.57541,353.94536 419.31502,352.40654 C 420.05466,350.86773 420.93078,348.82951 421.94278,346.25998 C 423.28977,342.84003 424.32131,340.26688 425.11963,338.5003 C 425.45853,337.75043 425.72549,337.22893 425.98248,336.77593 C 426.33724,337.76941 426.73713,339.29862 427.23753,341.44843 C 427.69244,343.40277 428.03751,344.83306 428.37492,345.75936 C 428.54364,346.22251 428.65882,346.52553 428.96322,346.87186 C 429.11544,347.04503 429.39364,347.40916 430.17905,347.42811 C 430.57178,347.4376 430.92229,347.30147 431.12034,347.1778 C 431.31841,347.05413 431.40112,346.94074 431.47332,346.84405 C 431.76213,346.45724 431.80718,346.1558 431.90474,345.67592 C 432.00234,345.19605 432.09994,344.57786 432.17928,343.81249 C 432.33801,342.28174 432.47346,340.13131 432.61071,337.33218 C 432.79005,333.67534 433.38501,330.53171 434.17952,328.51562 C 434.57681,327.50759 435.06806,326.78716 435.39535,326.48531 C 435.51341,326.37646 435.53742,326.38296 435.55223,326.37406 C 436.36363,326.67903 437.3552,326.75108 438.17999,326.54094 C 439.06769,326.31479 439.76691,325.86 440.37633,325.28938 C 441.38152,324.34819 442.07973,322.97652 442.57267,321.39563 C 442.92329,322.08115 443.24795,322.51732 443.67083,323.7875 L 443.67083,333.88343 L 443.67083,333.93906 L 443.67083,334.02249 C 444.64766,338.99184 445.38965,342.70724 445.98483,345.31436 C 446.28244,346.61793 446.56195,347.62904 446.80846,348.40154 C 447.05499,349.17405 447.17771,349.64925 447.63209,350.12592 C 447.7457,350.24509 447.89268,350.39349 448.18117,350.51529 C 448.46968,350.63711 448.97567,350.68523 449.35778,350.59873 C 450.12203,350.42575 450.2263,350.10693 450.37751,349.87561 C 450.67995,349.41298 450.87226,348.85975 451.08347,348.06779 C 451.50591,346.48389 451.9612,344.02922 452.57384,340.75311 C 453.36582,336.51816 454.54743,333.58624 455.75069,331.96437 C 456.35235,331.15345 456.94806,330.68842 457.35872,330.51812 C 457.76941,330.34784 457.9189,330.35991 458.33923,330.51812 C 459.17992,330.83456 460.6811,332.33024 461.86906,334.99593 C 463.05704,337.66163 464.06272,341.43781 464.6537,346.20436 C 465.01786,349.14131 465.33464,351.28998 465.59499,352.62904 C 465.72518,353.29858 465.81072,353.7295 465.98719,354.1031 C 466.03133,354.19651 466.0702,354.27949 466.18329,354.40904 C 466.29641,354.5386 466.53598,354.82752 467.20302,354.88185 C 467.53656,354.90902 467.86203,354.81395 468.06586,354.71498 C 468.26972,354.61601 468.38706,354.51326 468.45807,354.43685 C 468.60013,354.28405 468.61239,354.20028 468.65417,354.1031 C 468.82132,353.71438 468.88435,353.28331 468.96793,352.60123 C 469.05154,351.91915 469.12686,351.03378 469.20325,349.90342 C 469.35606,347.6427 469.5127,344.45027 469.6739,340.2803 C 470.00868,331.62212 470.46688,326.68145 471.36037,324.6775 C 471.58377,324.17652 471.83447,323.87897 471.9879,323.75969 C 472.14135,323.64042 472.13752,323.67615 472.26244,323.67625 C 472.51229,323.67648 473.55378,324.00697 474.92942,324.81657 C 478.04881,326.6524 481.41142,332.04566 481.75375,336.30312 C 481.91039,338.25057 482.0403,339.7144 482.18517,340.69749 C 482.25763,341.18904 482.34705,341.55407 482.45972,341.86561 C 482.51608,342.0214 482.51893,342.14461 482.73426,342.36624 C 482.84194,342.47706 483.02984,342.62792 483.401,342.7278 C 483.7722,342.82768 484.26907,342.78398 484.53839,342.67217 C 485.07706,342.44858 485.10849,342.26679 485.20514,342.11593 C 485.30181,341.96507 485.36867,341.81794 485.44046,341.64311 C 485.58405,341.29346 485.74747,340.83273 485.9111,340.25249 C 486.2384,339.09202 486.64739,337.41292 487.16615,335.19062 C 487.70205,332.89508 488.08023,331.19963 488.4212,330.04531 C 488.83322,330.94919 489.29348,332.07432 489.9508,333.74437 C 490.66332,335.55466 491.24422,336.86737 491.91181,337.77718 C 492.24563,338.23209 492.57473,338.63976 493.32374,338.88968 C 493.69827,339.01465 494.20006,339.0539 494.61801,338.97312 C 495.03599,338.89234 495.34185,338.73128 495.59852,338.55593 C 496.62521,337.85453 497.20326,336.78452 498.10862,334.99593 C 499.014,333.20735 500.113,330.72567 501.48157,327.48656 C 502.71436,324.5689 503.72231,322.3408 504.54075,320.72813 C 505.11242,319.60175 505.43729,319.20341 505.7958,318.72563 C 506.01463,319.30916 506.23537,319.89612 506.46254,321.08969 C 508.01254,329.23288 509.4984,334.80889 511.16898,338.22218 C 512.0043,339.92883 512.86,341.11822 514.07128,341.86561 C 514.67695,342.23932 515.39987,342.4737 516.18918,342.5053 C 516.72944,342.52693 517.22054,342.34551 517.71877,342.19936 z "
       id="path7508"
       inkscape:export-filename="/home/thp/path9359.png"
       inkscape:export-xdpi="90"
       inkscape:export-ydpi="90" />
    <path
       style="fill:black;fill-opacity:1;stroke:none;stroke-width:2;stroke-miterlimit:4;stroke-dasharray:none;stroke-opacity:1"
       d="M 282.55335,189.80145 L 282.55335,195.47519 L 286.67148,186.63082 L 289.69144,180.06708 L 290.82883,192.66613 C 291.42935,199.05928 291.99871,202.92387 292.94673,204.90362 C 293.18376,205.39857 293.44061,205.78319 293.92724,206.12737 C 294.17056,206.29947 294.48906,206.45834 294.90774,206.51674 C 295.32645,206.57515 295.79839,206.52061 296.12357,206.40549 C 296.77396,206.17528 297.10094,205.83945 297.45706,205.43206 C 297.81321,205.02468 298.16226,204.50891 298.51601,203.90237 C 298.88449,203.27062 299.02654,203.17766 299.30042,202.8455 C 299.48285,203.39626 299.71244,203.95073 299.8495,205.12612 C 300.03156,206.68713 300.13206,208.7859 300.20248,211.41174 C 300.33931,216.51249 300.88381,219.65857 301.88896,221.42423 C 302.14027,221.86565 302.4172,222.23221 302.83024,222.53673 C 303.24332,222.84126 303.92123,223.06653 304.59516,223.03735 C 305.26911,223.00819 305.79829,222.76406 306.20319,222.4811 C 306.60812,222.19816 306.90631,221.8628 307.22292,221.45204 C 308.4894,219.80904 309.59954,217.00493 310.51742,213.16393 C 311.43533,209.32293 312.12482,204.46898 312.36078,198.89613 C 312.49573,195.70955 312.7539,194.57347 312.9883,192.83301 C 313.19903,193.64475 313.42392,194.58764 313.65505,195.19707 C 314.06556,196.27943 314.45029,197.06315 315.18464,197.64456 C 315.55184,197.93528 316.06581,198.19574 316.67501,198.25644 C 317.28424,198.31715 317.8618,198.1792 318.32227,197.97831 C 319.24322,197.57656 319.92375,196.91769 320.7147,196.03144 C 321.20026,195.48743 321.46445,195.31303 321.73443,195.11363 C 321.86812,195.39886 322.05364,195.69974 322.16586,196.44863 C 322.31295,197.43012 322.37692,198.76794 322.40118,200.45362 C 322.43947,203.11288 322.98976,206.04873 323.81311,208.6583 C 324.63648,211.26789 325.68742,213.55505 327.02917,215.02736 C 327.471,215.51216 327.92672,215.91919 328.75487,216.11205 C 329.16897,216.20848 329.67151,216.18024 330.08836,216.05642 C 330.50523,215.93262 330.83467,215.74049 331.06886,215.52799 C 332.00567,214.67796 332.35899,213.43304 332.79456,211.46736 C 333.6657,207.53602 334.22417,200.85941 334.55947,191.08082 L 334.59869,189.41207 C 335.02053,196.25748 335.80634,202.50487 336.75581,207.07299 C 337.24682,209.43527 337.79341,211.36406 338.36384,212.74674 C 338.64908,213.43809 338.91009,213.99357 339.26591,214.4433 C 339.44385,214.66818 339.64825,214.86998 339.93265,215.05517 C 340.21709,215.24037 340.65507,215.41674 341.1877,215.41674 C 341.58609,215.41675 342.59075,215.7887 343.54092,216.6683 C 344.49112,217.5479 345.38016,218.83346 345.89414,220.22829 C 346.20081,221.0604 346.38138,221.60245 347.07075,222.09173 C 347.24312,222.21406 347.48061,222.32896 347.81594,222.39767 C 348.15128,222.46638 348.56932,222.44001 348.87488,222.34204 C 349.48604,222.14611 349.67716,221.85615 349.85539,221.59111 C 350.56834,220.53096 350.8257,218.84718 350.99278,216.13986 C 351.10417,214.3357 351.25963,212.92558 351.46342,211.91236 C 351.62846,211.09197 351.8344,210.72763 351.97329,210.49393 C 352.31549,210.72082 352.8145,211.12918 353.50288,211.88455 C 354.35511,212.8197 355.06097,213.46948 356.0522,213.85924 C 356.54784,214.05412 357.22523,214.15926 357.85633,213.9983 C 358.48746,213.83735 358.90911,213.48834 359.18982,213.13611 C 359.7513,212.43167 360.00913,211.51567 360.24877,210.2158 C 360.48844,208.91594 360.64618,207.24291 360.75864,205.15393 L 360.99396,200.48144 L 362.17057,203.79112 L 365.62195,213.16393 L 368.09283,213.02486 L 369.30866,203.65206 C 369.35908,203.26283 369.41404,203.20978 369.46554,202.87331 C 369.48446,202.94659 369.48584,202.93674 369.50476,203.01237 C 369.9247,204.68991 370.38321,206.97666 370.95592,209.93768 C 371.68265,213.69487 372.26016,216.50814 372.72083,218.25361 C 372.95118,219.12635 373.09934,219.70522 373.38757,220.17267 C 373.45965,220.28954 373.53202,220.39011 373.70134,220.53423 C 373.87068,220.67836 374.25614,220.90687 374.83873,220.89579 C 375.42133,220.88473 375.77932,220.6343 375.93689,220.47861 C 376.09449,220.32292 376.15158,220.21202 376.21144,220.08923 C 376.45089,219.59809 376.58488,218.98381 376.7213,218.03111 C 376.85775,217.07842 376.97923,215.81663 377.1135,214.2208 C 377.34721,211.44349 377.5994,207.1864 377.89791,202.28925 L 377.89791,204.06925 L 377.89791,204.15268 L 380.40801,204.23612 L 380.40801,204.15268 L 381.42774,197.11613 L 383.54563,205.01487 C 385.00644,210.49426 386.01302,213.63446 387.50689,215.27767 C 387.88038,215.68849 388.31742,216.04779 388.95804,216.25111 C 389.59868,216.45444 390.41284,216.40633 390.99749,216.19549 C 392.16682,215.77381 392.8459,215.00182 393.70369,213.91486 C 394.96374,212.31824 396.32838,209.53396 397.66494,206.18299 C 399.00153,202.83204 400.28397,198.95666 401.15555,195.33613 C 402.18975,191.04017 403.82143,187.52012 405.54823,185.10114 C 406.41165,183.89166 407.28701,182.97128 408.09755,182.3477 C 408.90811,181.72413 409.62036,181.44704 410.01934,181.40208 C 410.1434,181.38811 410.23478,181.3747 410.21544,181.37427 C 410.41872,181.37885 410.55658,181.43003 410.80375,181.59677 C 411.05094,181.76351 411.35646,182.07026 411.62737,182.5702 C 412.16924,183.57011 412.56867,185.25622 412.56866,187.63207 C 412.56869,189.944 413.03654,192.04883 413.86293,193.63957 C 414.27614,194.43494 414.78813,195.08743 415.43174,195.61425 C 416.07538,196.14109 416.94663,196.55989 417.98106,196.55988 C 417.95767,196.55989 418.27384,196.62471 418.72625,197.03269 C 419.17868,197.44068 419.6948,198.11254 420.1774,198.97956 C 421.14263,200.71361 421.96681,203.20516 422.37374,205.93268 C 422.70674,208.16453 423.02326,209.75831 423.39347,210.79987 C 423.57858,211.32065 423.61457,211.70564 424.29553,212.13486 C 424.63604,212.34949 425.40581,212.48492 425.90356,212.32955 C 426.40134,212.17419 426.62846,211.94406 426.80563,211.74549 C 427.51438,210.95125 427.89815,209.76628 428.57055,207.68487 C 429.24296,205.60346 430.08028,202.71309 431.08064,198.95175 L 434.53203,185.96333 L 439.23847,200.53706 C 440.65359,204.90864 441.73755,208.25757 442.61141,210.68862 C 443.48531,213.11967 444.0552,214.5737 444.80775,215.47236 C 444.99591,215.69703 445.18123,215.90017 445.55294,216.08424 C 445.92467,216.26831 446.66072,216.37102 447.16097,216.2233 C 448.1615,215.92786 448.26288,215.45996 448.53368,214.94392 C 449.07531,213.91185 449.5634,212.29065 450.18093,210.04893 L 450.18093,209.96549 L 450.18093,209.88205 L 450.18093,207.93518 C 450.41378,208.71808 450.71305,209.357 451.12222,209.85424 C 451.32683,210.10287 451.57317,210.33655 451.98507,210.52174 C 452.39699,210.70694 453.05125,210.76605 453.55388,210.63299 C 454.55919,210.36689 454.87303,209.83691 455.24035,209.18674 C 455.63345,208.49105 456.02879,208.04863 456.2993,207.87956 C 456.56984,207.71049 456.60084,207.73477 456.92683,207.79612 C 457.57884,207.91883 459.30581,208.9002 461.5156,210.96674 C 462.19781,211.60471 462.78938,212.12777 463.4374,212.52424 C 464.08544,212.92072 464.83215,213.28345 465.79062,213.21955 C 466.74911,213.15566 467.48423,212.6274 467.90851,212.05143 C 468.33282,211.47546 468.63007,210.75401 468.88902,209.79862 C 469.92486,205.97703 470.32421,198.35338 470.77159,184.73958 C 470.84235,182.58711 470.86633,181.80883 470.92848,179.95583 C 471.38011,185.78187 472.10724,191.00295 473.00715,194.69644 C 473.51496,196.78053 474.03859,198.40007 474.6544,199.53581 C 474.96234,200.10369 475.25582,200.55354 475.75257,200.92644 C 476.00097,201.11289 476.35121,201.29136 476.81152,201.37144 C 477.27186,201.45152 477.81527,201.36627 478.18423,201.20456 C 478.2048,201.2069 478.34301,201.2344 478.53722,201.34362 C 478.92567,201.56208 479.48858,202.09421 480.06681,202.87331 C 481.22329,204.43151 482.41876,206.93997 483.20443,209.90987 C 484.3342,214.18032 485.55898,217.14911 486.89114,219.00455 C 487.55725,219.93227 488.19856,220.60648 489.16592,221.00704 C 490.1333,221.40761 491.51079,221.29942 492.34276,220.78454 C 494.00673,219.7548 494.82496,217.82474 495.59805,214.83267 C 496.37116,211.84061 496.90277,207.7868 497.08842,202.73425 C 497.21685,199.24035 497.51971,197.50721 497.79439,195.61425 C 498.31385,197.17023 498.90869,198.64192 499.67696,199.78613 C 500.23764,200.62114 500.83422,201.30771 501.52031,201.84425 C 502.20644,202.38079 503.03766,202.81769 504.10885,202.81769 C 503.90313,202.81769 504.24902,202.85446 504.69716,203.34612 C 505.14532,203.83779 505.63055,204.63507 506.10909,205.65456 C 507.06619,207.69354 507.91591,210.57531 508.38387,213.74799 C 508.74073,216.16708 509.06392,217.94784 509.32516,219.06017 C 509.45581,219.61635 509.51518,219.95916 509.71736,220.31173 C 509.76792,220.39989 509.82023,220.49268 509.95268,220.61767 C 510.08515,220.74267 510.37851,220.96847 510.93319,221.00704 C 511.48789,221.04563 511.94236,220.82064 512.1098,220.67329 C 512.27726,220.52595 512.2958,220.40571 512.34512,220.31173 C 512.54245,219.93586 512.61405,219.59603 512.6981,219.03236 C 512.78218,218.46869 512.85827,217.72935 512.93342,216.80736 C 513.08375,214.96338 513.21217,212.37346 513.36485,208.99205 C 513.61763,203.39358 514.25198,199.3789 515.2082,196.94925 C 515.68634,195.73444 516.23813,194.94905 516.73779,194.55738 C 517.23748,194.16572 517.50908,194.11609 518.07128,194.19582 C 519.33519,194.37508 520.63281,194.0665 521.60111,193.44488 C 521.97375,193.20567 522.18847,192.73727 522.50318,192.41582 L 522.50318,187.74332 C 522.21826,188.58819 521.93928,189.52333 521.60111,190.1352 C 521.05839,191.1172 520.43764,191.77413 519.91464,192.10988 C 519.39166,192.44564 519.05908,192.51698 518.54193,192.44363 C 517.21388,192.2553 515.83167,192.62678 514.89444,193.36144 C 513.95723,194.09612 513.31152,195.11712 512.77654,196.47644 C 511.70661,199.19509 511.11035,203.27506 510.85475,208.93643 C 510.78541,210.47282 510.72516,211.25867 510.65865,212.46861 C 510.15581,209.65023 509.4172,207.04907 508.50153,205.09831 C 507.98142,203.99022 507.41452,203.07338 506.77584,202.37269 C 506.13718,201.672 505.37412,201.03769 504.10885,201.03769 C 504.12058,201.0377 503.83849,200.98895 503.40289,200.64831 C 502.96731,200.30768 502.44118,199.7363 501.95174,199.00738 C 500.97289,197.54953 500.08745,195.45537 499.59852,193.16676 C 499.4675,192.55331 499.32143,192.07422 499.1671,191.6927 C 499.08996,191.50194 499.00743,191.3583 498.89255,191.19207 C 498.7777,191.02585 498.68433,190.82305 498.26503,190.63582 C 497.84575,190.4486 496.97185,190.49673 496.61778,190.69145 C 496.26373,190.88617 496.17265,191.05735 496.06869,191.21988 C 495.86081,191.54496 495.72088,191.90065 495.59805,192.36019 C 495.10672,194.19837 494.7609,197.71042 494.57832,202.67862 C 494.39502,207.66777 493.86418,211.64646 493.12717,214.49892 C 492.39018,217.3514 491.23336,219.08887 490.69551,219.42173 C 490.4266,219.58817 490.64317,219.56937 490.42097,219.47736 C 490.19879,219.38536 489.68265,218.97232 489.1267,218.19798 C 488.01481,216.64933 486.78249,213.76125 485.67531,209.57612 C 484.85502,206.47531 483.64566,203.84886 482.30236,202.03894 C 481.63075,201.13398 480.92802,200.43735 480.06681,199.953 C 479.63622,199.71084 479.1527,199.51792 478.57644,199.45238 C 478.22419,199.41232 477.87204,199.51998 477.51749,199.59144 C 477.4162,199.49193 477.22274,199.29287 477.00762,198.89613 C 476.50913,197.97672 475.97117,196.41445 475.47803,194.39051 C 474.49179,190.34261 473.65818,184.45097 473.24247,177.73083 C 472.89749,172.15355 472.62943,167.88753 472.41885,165.02053 C 472.31357,163.58704 472.23171,162.5063 472.14431,161.76647 C 472.10063,161.39656 472.07521,161.12536 472.02664,160.90429 C 472.00238,160.79376 471.96398,160.69641 471.90898,160.57054 C 471.88151,160.50761 471.87722,160.42907 471.7521,160.29241 C 471.68958,160.22409 471.57086,160.14344 471.3599,160.0421 C 471.14896,159.94076 470.77097,159.85376 470.41861,159.90304 C 469.61957,160.01484 469.54704,160.32165 469.47732,160.43147 C 469.40763,160.54131 469.38017,160.59154 469.35966,160.65397 C 469.31869,160.77884 469.30432,160.90348 469.28122,161.04335 C 469.23506,161.32309 469.2046,161.68615 469.16356,162.18366 C 469.08151,163.17869 469.01618,164.65509 468.92824,166.63366 C 468.7524,170.59079 468.52842,176.56144 468.26149,184.68395 C 467.81452,198.28592 467.35717,206.00038 466.41814,209.46487 C 466.18341,210.331 465.89553,210.9149 465.67295,211.21705 C 465.45041,211.51922 465.43107,211.44784 465.55529,211.43955 C 465.67954,211.43128 465.49253,211.43879 465.08465,211.18924 C 464.6768,210.9397 464.14543,210.49866 463.51584,209.90987 C 461.21164,207.75503 459.55913,206.44904 457.55435,206.07174 C 456.55199,205.88311 455.41888,206.06527 454.65205,206.54456 C 453.9713,206.97006 453.50994,207.59399 453.08324,208.29674 C 452.75852,207.67271 452.34911,206.70328 452.14195,204.95925 C 451.89679,202.8951 451.71787,201.66487 451.23988,200.81519 C 451.12041,200.60278 451.03922,200.35136 450.57314,200.11988 C 450.34011,200.00414 449.94865,199.93051 449.59263,199.953 C 449.23663,199.9755 448.95099,200.07169 448.769,200.1755 C 448.04112,200.59076 448.00835,200.95991 447.74927,201.5105 L 447.67083,201.64956 L 447.67083,201.78862 L 447.67083,209.82643 L 447.67083,209.88205 C 447.20024,211.57868 446.79271,212.613 446.455,213.44205 C 446.06473,212.7217 445.67718,212.00765 445.04307,210.24362 C 444.18267,207.84995 443.08512,204.51895 441.67013,200.14769 L 435.59098,181.40208 L 433.15932,181.42989 L 428.60977,198.618 C 427.61169,202.37087 426.79609,205.23327 426.13889,207.26768 C 425.85433,208.14864 425.75252,208.22442 425.51136,208.79737 C 425.30895,207.91579 425.10219,207.20155 424.88384,205.73799 C 424.45639,202.87285 423.61246,200.25564 422.53062,198.31206 C 421.98973,197.34028 421.37651,196.54177 420.68726,195.92019 C 419.99804,195.29862 419.14093,194.77988 417.98106,194.77988 C 417.87908,194.77989 417.6633,194.7596 417.31432,194.47394 C 416.96536,194.1883 416.55819,193.6861 416.21615,193.02769 C 415.5321,191.7109 415.07876,189.76563 415.07876,187.63207 C 415.07881,185.12633 414.70781,183.27251 413.98059,181.93052 C 413.617,181.25953 413.184,180.70467 412.56866,180.28958 C 411.95335,179.8745 411.12159,179.61291 410.29388,179.59427 C 409.99971,179.58769 409.78709,179.63187 409.62714,179.64989 C 408.3659,179.79203 407.2868,180.32952 406.25419,181.12395 C 405.22161,181.91839 404.21274,182.97878 403.27345,184.29458 C 401.39489,186.92619 399.75397,190.5883 398.68467,195.03019 C 397.83085,198.57711 396.58364,202.39517 395.27251,205.68237 C 393.96139,208.96958 392.52103,211.76819 391.50736,213.05268 C 390.7484,214.01444 390.07188,214.50945 389.89932,214.58236 C 389.86234,214.56117 389.80212,214.52713 389.62478,214.33205 C 388.74027,213.35909 387.46579,210.11742 386.01651,204.68112 L 382.29058,190.8027 L 380.40801,190.85832 L 380.40801,185.2402 L 380.40801,185.18458 L 380.40801,185.15676 C 380.29994,184.43723 380.20154,183.86418 380.09425,183.43239 C 380.04063,183.2165 379.96614,183.04357 379.89815,182.87614 C 379.83017,182.70872 379.83927,182.57676 379.46672,182.29208 C 379.28047,182.14975 378.82081,181.91914 378.29011,181.98614 C 377.75944,182.05315 377.50839,182.27843 377.38805,182.40333 C 377.14739,182.65312 377.13444,182.78498 377.07428,182.95958 C 376.954,183.30879 376.85459,183.75378 376.76052,184.37801 C 376.38428,186.87497 376.00826,192.0874 375.50547,200.42581 C 375.14324,206.43368 374.8698,210.94347 374.6034,214.10955 C 374.57973,214.39118 374.54843,214.51689 374.52496,214.77705 C 374.19345,213.23222 373.91387,212.03068 373.46602,209.71518 C 372.89118,206.74299 372.40638,204.39939 371.97564,202.67862 C 371.54494,200.95786 371.22522,199.91134 370.75981,199.20206 C 370.64348,199.02476 370.55269,198.86695 370.24995,198.67363 C 370.0986,198.57697 369.85517,198.47102 369.54398,198.42331 C 369.23282,198.37562 368.85814,198.41489 368.6027,198.50675 C 368.09184,198.69048 367.98037,198.91101 367.85751,199.09081 C 367.73468,199.27063 367.61962,199.44543 367.54375,199.64706 C 367.24032,200.45359 367.03114,201.68865 366.79856,203.48518 L 366.24948,207.79612 L 364.60223,203.34612 L 361.2685,193.97332 L 358.79762,194.16801 L 358.24854,205.09831 C 358.1377,207.15761 358.00039,208.78646 357.77789,209.9933 C 357.57141,211.11343 357.24512,211.78857 357.03271,212.10705 C 356.76788,211.94958 356.28032,211.63484 355.62078,210.91112 C 354.76049,209.96709 354.07866,209.29575 353.22834,208.85299 C 352.8032,208.63162 352.27427,208.42815 351.62031,208.46362 C 350.96636,208.49909 350.37408,208.81517 350.05149,209.13112 C 349.40633,209.76302 349.21747,210.51591 348.99254,211.63424 C 348.76764,212.75258 348.59581,214.22355 348.48268,216.05642 C 348.38189,217.68996 348.14793,218.18592 347.9336,219.03236 C 347.33018,217.72957 346.53989,216.53597 345.54116,215.61142 C 344.45425,214.60524 343.1544,213.88459 341.61913,213.74799 C 341.6206,213.74894 341.62004,213.72105 341.61913,213.72018 C 341.61214,213.71348 341.54652,213.68763 341.46225,213.58111 C 341.27174,213.34031 341.01173,212.86533 340.75628,212.24611 C 340.24539,211.0077 339.74721,209.13831 339.26591,206.82268 C 338.30334,202.19144 337.47686,195.76172 337.06957,188.68895 L 335.53998,162.9346 L 335.53998,162.87897 L 333.02988,162.87897 L 333.02988,162.9346 L 332.04937,191.0252 C 331.71509,200.77508 331.15176,207.45215 330.32368,211.18924 C 329.95188,212.8673 329.4472,213.75837 329.18629,214.10955 C 329.14865,214.0743 329.18718,214.09794 329.14707,214.05392 C 328.13652,212.94501 327.03072,210.75998 326.24477,208.26893 C 325.45884,205.77789 324.94731,202.95688 324.91128,200.45362 C 324.8866,198.73703 324.79842,197.36081 324.63673,196.28175 C 324.47507,195.20271 324.32132,194.43578 323.81311,193.80644 C 323.55902,193.49178 323.10672,193.14947 322.47962,193.02769 C 321.85254,192.90592 321.26425,193.05757 320.83237,193.25019 C 319.96861,193.63545 319.35618,194.23497 318.59681,195.08582 C 317.90718,195.85857 317.32367,196.30049 317.06722,196.42082 C 316.87116,196.25857 316.40962,195.70694 316.04749,194.75207 C 315.68029,193.78377 315.34438,192.42194 314.98854,190.71926 C 314.84293,190.02244 314.66973,189.47532 314.5179,189.0227 C 314.36608,188.57009 314.26367,188.24789 313.96881,187.9102 C 313.82141,187.74136 313.61493,187.49122 313.02752,187.38176 C 312.44015,187.27231 311.81003,187.52412 311.57637,187.71551 C 311.10909,188.09831 311.0806,188.37096 310.94885,188.77239 C 310.42187,190.3781 310.06832,193.70087 309.85068,198.8405 C 309.61786,204.34013 308.94083,209.11573 308.04655,212.85799 C 307.15228,216.60026 305.98716,219.34367 305.02658,220.58986 C 304.83009,220.84481 304.69526,221.00386 304.55594,221.11829 C 304.46847,221.02722 304.36523,220.9729 304.24218,220.75673 C 303.53395,219.51263 302.84704,216.3968 302.71258,211.38393 C 302.64162,208.73717 302.50991,206.61234 302.32038,204.98706 C 302.13088,203.36179 301.92257,202.25203 301.49675,201.45487 C 301.28387,201.05631 301.03589,200.64896 300.32015,200.398 C 299.96231,200.27253 299.51396,200.24337 299.14354,200.31456 C 298.77313,200.38576 298.50085,200.53705 298.28069,200.67612 C 297.40006,201.23241 296.90856,202.02345 296.20201,203.23487 C 295.89991,203.75291 295.61014,204.12765 295.37839,204.403 C 295.35286,204.35748 295.36443,204.37231 295.33917,204.31956 C 294.6349,202.84877 293.93607,198.9124 293.33893,192.55488 L 291.80934,175.36677 L 289.37768,175.14427 L 284.27904,186.07458 L 282.55335,189.80145 z "
       id="path5699"
       inkscape:export-filename="/home/thp/path9359.png"
       inkscape:export-xdpi="90"
       inkscape:export-ydpi="90" />
    <path
       style="fill:url(#linearGradient10665);fill-opacity:1;stroke:none;stroke-width:25.70000076;stroke-miterlimit:4;stroke-dasharray:none;stroke-opacity:1"
       d="M 446.76221,222.35625 C 446.43504,222.41988 446.84996,225.39765 447.73723,231.71588 C 449.22369,242.30128 448.64476,243.73587 443.05057,242.55949 C 438.23795,241.54749 436.0663,241.68163 434.63416,243.08797 C 433.58162,244.12161 432.04112,243.6394 431.16367,242.05446 C 430.32975,240.54818 429.69792,240.16948 428.94179,241.06981 L 429.64577,244.1817 C 427.99828,247.95181 427.57083,247.61694 420.47593,241.66022 L 412.87503,235.27336 L 409.87691,242.49978 C 407.24792,248.81921 406.47269,249.27807 404.39549,246.04295 C 403.08727,244.00555 400.18055,242.59776 397.94219,242.90546 C 395.70378,243.21318 393.53663,242.0869 393.14995,240.37764 C 392.72531,238.50068 391.05448,237.85033 389.01986,238.11163 C 388.88422,238.12904 388.72987,238.15618 388.59142,238.18155 C 385.35389,238.77494 381.4221,241.51383 380.11062,245.15825 C 379.03479,248.14769 376.4896,251.76912 374.50106,253.1847 C 371.64592,255.21719 369.84186,254.73458 366.02655,250.93151 L 361.15714,246.09878 L 360.45732,251.42145 L 358.8147,244.16039 C 357.48232,242.09521 357.30823,243.79011 357.76831,250.33563 C 358.43161,259.77295 358.28906,259.93523 354.12118,254.55287 C 350.82871,250.30099 349.77221,249.84711 349.48377,252.70943 L 349.0988,256.47822 L 344.8675,253.34402 L 340.79007,250.18867 L 341.18686,254.46747 C 341.46863,257.71792 340.36909,258.47047 336.8687,257.542 C 333.28816,256.5923 332.34762,257.14312 332.53817,260.00075 C 332.67783,262.09551 331.6628,262.90895 330.26339,261.86817 C 328.90853,260.86052 326.0882,260.26994 323.97031,260.56108 C 321.85239,260.85223 318.47197,256.71289 316.43199,251.36494 L 312.679,241.64843 L 314.17319,252.60166 C 315.21235,260.2009 314.27969,263.18359 311.07553,262.3337 C 308.53434,261.65969 306.00356,259.4983 305.48136,257.5234 C 304.79303,254.92033 303.67487,254.5503 301.11636,256.18282 C 298.46083,257.87723 296.876,257.63164 294.86024,255.17938 C 293.2658,253.23974 292.50811,254.61802 292.97186,258.61455 C 293.97464,267.2561 286.87542,272.4336 284.58175,264.72977 C 283.38594,260.71346 282.12393,260.11115 279.83964,262.28325 C 277.5798,264.4321 276.00477,263.52108 273.71626,258.78066 L 270.71322,252.37921 L 266.64762,257.27144 L 262.55365,262.1786 L 261.16346,257.7166 C 260.0419,254.17715 257.00922,253.20431 254.61164,254.28393 L 269.48721,320.03983 C 269.73067,319.85033 269.9523,319.65374 270.20443,319.42301 C 272.69644,317.14238 274.01398,317.64813 275.77989,321.76599 C 277.97435,326.88318 277.9724,326.82631 279.18716,319.43415 C 279.87535,315.24617 281.23137,313.37955 282.15482,315.29929 C 283.72613,318.56585 284.07171,318.60346 288.52166,315.67004 C 291.13683,313.94607 295.1519,310.3211 297.36463,307.62912 L 301.4586,302.72196 L 303.74385,308.61563 C 305.81685,313.84764 306.28009,314.05809 308.50436,310.44213 C 309.87956,308.2064 311.49716,307.00575 311.967,307.79395 C 312.43686,308.58214 315.08645,308.77063 317.93135,308.209 C 321.02522,307.5982 324.62781,309.11093 326.89841,311.93815 C 332.14967,318.47697 337.28841,318.58339 336.20892,312.13577 C 335.28699,306.62917 340.7172,298.63143 342.37739,303.07321 C 342.81612,304.24706 345.0489,304.5941 347.34619,303.85667 C 349.64682,303.11813 352.04057,303.77284 352.55488,305.27974 C 353.43698,307.86427 353.55547,307.82768 356.56909,305.06972 C 359.35919,302.51633 360.03431,302.58456 361.61261,305.62238 C 362.92145,308.14163 363.83315,307.33483 365.00751,302.67478 C 366.55758,296.52402 366.84795,296.63736 370.28517,305.66514 C 371.85661,309.79247 373.28372,311.93393 374.05072,311.50967 L 371.75491,301.36129 L 374.22073,303.84507 L 379.20718,298.81522 C 383.80142,294.25622 384.55679,294.01284 386.76144,296.29922 C 388.10181,297.68932 391.49296,298.28921 394.23675,297.64227 C 401.06636,296.03198 410.41328,298.20817 411.92301,301.76061 C 412.82882,303.89214 414.29788,303.01409 417.37985,298.52957 C 421.4972,292.5384 421.6877,292.45714 424.57246,295.67736 C 427.03305,298.42419 427.51865,298.11579 427.08619,293.74401 C 426.79925,290.84372 428.34595,288.52624 430.65079,288.60088 C 432.95556,288.67555 435.25071,287.41868 435.76144,285.80333 C 436.08693,284.77363 437.483,285.18949 439.25477,286.6573 L 440.14503,290.5926 C 445.72159,297.70611 445.76844,297.69383 447.0418,292.32392 C 448.7103,285.28758 457.86524,285.37598 461.89037,292.4549 C 464.34271,296.7678 464.65731,296.35699 463.84193,289.86007 C 462.99405,283.10395 463.64799,282.14885 469.60941,282.67197 C 473.38046,283.00286 477.11422,284.65518 477.86555,286.34449 C 479.15816,289.25056 479.35449,289.18654 480.62359,285.49121 C 481.95773,281.60663 481.96606,281.60487 485.65833,284.18163 C 489.07002,286.56259 489.81102,286.25977 494.06963,280.54442 C 497.91922,275.378 499.09729,274.79612 500.88052,277.12722 C 505.33838,282.9544 508.60078,284.84694 512.52781,283.58634 C 514.75772,282.87051 516.97609,282.97493 517.34004,283.81795 C 517.52487,284.24626 518.06046,284.28105 518.74799,284.01031 L 503.90871,218.4148 C 502.96548,219.4032 502.29975,220.82963 502.23743,222.66915 C 502.12138,226.08999 500.07662,228.12833 496.52471,228.41631 C 492.75492,228.72198 491.3145,230.87637 491.79323,235.27454 C 492.36771,240.55293 492.01263,240.9345 489.77089,237.416 C 488.27215,235.06368 485.38954,233.3652 483.30274,233.65207 C 481.21594,233.93893 478.29743,232.79811 476.89017,231.11543 C 475.48301,229.43274 474.71253,231.21885 475.21512,235.07259 C 476.23523,242.89445 470.47105,245.21887 464.59423,239.32227 C 462.48455,237.20554 459.06818,236.01679 456.98492,236.68552 C 454.88531,237.3595 451.56003,233.78499 449.56367,228.70822 C 447.91375,224.51251 447.05091,222.30011 446.76221,222.35625 z "
       id="path8423"
       inkscape:export-filename="/home/thp/path9359.png"
       inkscape:export-xdpi="90"
       inkscape:export-ydpi="90" />
    <path
       style="fill:white;fill-opacity:1;stroke:none;stroke-width:2;stroke-miterlimit:4;stroke-dasharray:none;stroke-opacity:1"
       d="M 277.09914,263.10373 L 277.09914,268.77747 L 281.21727,259.9331 L 284.23723,253.36936 L 285.37462,265.96841 C 285.97514,272.36156 286.5445,276.22615 287.49252,278.2059 C 287.72955,278.70085 287.9864,279.08547 288.47303,279.42965 C 288.71635,279.60175 289.03485,279.76062 289.45353,279.81902 C 289.87224,279.87743 290.34418,279.82289 290.66936,279.70777 C 291.31975,279.47756 291.64673,279.14173 292.00285,278.73434 C 292.359,278.32696 292.70805,277.81119 293.0618,277.20465 C 293.43028,276.5729 293.57233,276.47994 293.84621,276.14778 C 294.02864,276.69854 294.25823,277.25301 294.39529,278.4284 C 294.57735,279.98941 294.67785,282.08818 294.74827,284.71402 C 294.8851,289.81477 295.4296,292.96085 296.43475,294.72651 C 296.68606,295.16793 296.96299,295.53449 297.37603,295.83901 C 297.78911,296.14354 298.46702,296.36881 299.14095,296.33963 C 299.8149,296.31047 300.34408,296.06634 300.74898,295.78338 C 301.15391,295.50044 301.4521,295.16508 301.76871,294.75432 C 303.03519,293.11132 304.14533,290.30721 305.06321,286.46621 C 305.98112,282.62521 306.67061,277.77126 306.90657,272.19841 C 307.04152,269.01183 307.29969,267.87575 307.53409,266.13529 C 307.74482,266.94703 307.96971,267.88992 308.20084,268.49935 C 308.61135,269.58171 308.99608,270.36543 309.73043,270.94684 C 310.09763,271.23756 310.6116,271.49802 311.2208,271.55872 C 311.83003,271.61943 312.40759,271.48148 312.86806,271.28059 C 313.78901,270.87884 314.46954,270.21997 315.26049,269.33372 C 315.74605,268.78971 316.01024,268.61531 316.28022,268.41591 C 316.41391,268.70114 316.59943,269.00202 316.71165,269.75091 C 316.85874,270.7324 316.92271,272.07022 316.94697,273.7559 C 316.98526,276.41516 317.53555,279.35101 318.3589,281.96058 C 319.18227,284.57017 320.23321,286.85733 321.57496,288.32964 C 322.01679,288.81444 322.47251,289.22147 323.30066,289.41433 C 323.71476,289.51076 324.2173,289.48252 324.63415,289.3587 C 325.05102,289.2349 325.38046,289.04277 325.61465,288.83027 C 326.55146,287.98024 326.90478,286.73532 327.34035,284.76964 C 328.21149,280.8383 328.76996,274.16169 329.10526,264.3831 L 329.14448,262.71435 C 329.56632,269.55976 330.35213,275.80715 331.3016,280.37527 C 331.79261,282.73755 332.3392,284.66634 332.90963,286.04902 C 333.19487,286.74037 333.45588,287.29585 333.8117,287.74558 C 333.98964,287.97046 334.19404,288.17226 334.47844,288.35745 C 334.76288,288.54265 335.20086,288.71902 335.73349,288.71902 C 336.13188,288.71903 337.13654,289.09098 338.08671,289.97058 C 339.03691,290.85018 339.92595,292.13574 340.43993,293.53057 C 340.7466,294.36268 340.92717,294.90473 341.61654,295.39401 C 341.78891,295.51634 342.0264,295.63124 342.36173,295.69995 C 342.69707,295.76866 343.11511,295.74229 343.42067,295.64432 C 344.03183,295.44839 344.22295,295.15843 344.40118,294.89339 C 345.11413,293.83324 345.37149,292.14946 345.53857,289.44214 C 345.64996,287.63798 345.80542,286.22786 346.00921,285.21464 C 346.17425,284.39425 346.38019,284.02991 346.51908,283.79621 C 346.86128,284.0231 347.36029,284.43146 348.04867,285.18683 C 348.9009,286.12198 349.60676,286.77176 350.59799,287.16152 C 351.09363,287.3564 351.77102,287.46154 352.40212,287.30058 C 353.03325,287.13963 353.4549,286.79062 353.73561,286.43839 C 354.29709,285.73395 354.55492,284.81795 354.79456,283.51808 C 355.03423,282.21822 355.19197,280.54519 355.30443,278.45621 L 355.53975,273.78372 L 356.71636,277.0934 L 360.16774,286.46621 L 362.63862,286.32714 L 363.85445,276.95434 C 363.90487,276.56511 363.95983,276.51206 364.01133,276.17559 C 364.03025,276.24887 364.03163,276.23902 364.05055,276.31465 C 364.47049,277.99219 364.929,280.27894 365.50171,283.23996 C 366.22844,286.99715 366.80595,289.81042 367.26662,291.55589 C 367.49697,292.42863 367.64513,293.0075 367.93336,293.47495 C 368.00544,293.59182 368.07781,293.69239 368.24713,293.83651 C 368.41647,293.98064 368.80193,294.20915 369.38452,294.19807 C 369.96712,294.18701 370.32511,293.93658 370.48268,293.78089 C 370.64028,293.6252 370.69737,293.5143 370.75723,293.39151 C 370.99668,292.90037 371.13067,292.28609 371.26709,291.33339 C 371.40354,290.3807 371.52502,289.11891 371.65929,287.52308 C 371.893,284.74577 372.14519,280.48868 372.4437,275.59153 L 372.4437,277.37153 L 372.4437,277.45496 L 374.9538,277.5384 L 374.9538,277.45496 L 375.97353,270.41841 L 378.09142,278.31715 C 379.55223,283.79654 380.55881,286.93674 382.05268,288.57995 C 382.42617,288.99077 382.86321,289.35007 383.50383,289.55339 C 384.14447,289.75672 384.95863,289.70861 385.54328,289.49777 C 386.71261,289.07609 387.39169,288.3041 388.24948,287.21714 C 389.50953,285.62052 390.87417,282.83624 392.21073,279.48527 C 393.54732,276.13432 394.82976,272.25894 395.70134,268.63841 C 396.73554,264.34245 398.36722,260.8224 400.09402,258.40342 C 400.95744,257.19394 401.8328,256.27356 402.64334,255.64998 C 403.4539,255.02641 404.16615,254.74932 404.56513,254.70436 C 404.68919,254.69039 404.78057,254.67698 404.76123,254.67655 C 404.96451,254.68113 405.10237,254.73231 405.34954,254.89905 C 405.59673,255.06579 405.90225,255.37254 406.17316,255.87248 C 406.71503,256.87239 407.11446,258.5585 407.11445,260.93435 C 407.11448,263.24628 407.58233,265.35111 408.40872,266.94185 C 408.82193,267.73722 409.33392,268.38971 409.97753,268.91653 C 410.62117,269.44337 411.49242,269.86217 412.52685,269.86216 C 412.50346,269.86217 412.81963,269.92699 413.27204,270.33497 C 413.72447,270.74296 414.24059,271.41482 414.72319,272.28184 C 415.68842,274.01589 416.5126,276.50744 416.91953,279.23496 C 417.25253,281.46681 417.56905,283.06059 417.93926,284.10215 C 418.12437,284.62293 418.16036,285.00792 418.84132,285.43714 C 419.18183,285.65177 419.9516,285.7872 420.44935,285.63183 C 420.94713,285.47647 421.17425,285.24634 421.35142,285.04777 C 422.06017,284.25353 422.44394,283.06856 423.11634,280.98715 C 423.78875,278.90574 424.62607,276.01537 425.62643,272.25403 L 429.07782,259.26561 L 433.78426,273.83934 C 435.19938,278.21092 436.28334,281.55985 437.1572,283.9909 C 438.0311,286.42195 438.60099,287.87598 439.35354,288.77464 C 439.5417,288.99931 439.72702,289.20245 440.09873,289.38652 C 440.47046,289.57059 441.20651,289.6733 441.70676,289.52558 C 442.70729,289.23014 442.80867,288.76224 443.07947,288.2462 C 443.6211,287.21413 444.10919,285.59293 444.72672,283.35121 L 444.72672,283.26777 L 444.72672,283.18433 L 444.72672,281.23746 C 444.95957,282.02036 445.25884,282.65928 445.66801,283.15652 C 445.87262,283.40515 446.11896,283.63883 446.53086,283.82402 C 446.94278,284.00922 447.59704,284.06833 448.09967,283.93527 C 449.10498,283.66917 449.41882,283.13919 449.78614,282.48902 C 450.17924,281.79333 450.57458,281.35091 450.84509,281.18184 C 451.11563,281.01277 451.14663,281.03705 451.47262,281.0984 C 452.12463,281.22111 453.8516,282.20248 456.06139,284.26902 C 456.7436,284.90699 457.33517,285.43005 457.98319,285.82652 C 458.63123,286.223 459.37794,286.58573 460.33641,286.52183 C 461.2949,286.45794 462.03002,285.92968 462.4543,285.35371 C 462.87861,284.77774 463.17586,284.05629 463.43481,283.1009 C 464.47065,279.27931 464.87,271.65566 465.31738,258.04186 C 465.38814,255.88939 465.41212,255.11111 465.47427,253.25811 C 465.9259,259.08415 466.65303,264.30523 467.55294,267.99872 C 468.06075,270.08281 468.58438,271.70235 469.20019,272.83809 C 469.50813,273.40597 469.80161,273.85582 470.29836,274.22872 C 470.54676,274.41517 470.897,274.59364 471.35731,274.67372 C 471.81765,274.7538 472.36106,274.66855 472.73002,274.50684 C 472.75059,274.50918 472.8888,274.53668 473.08301,274.6459 C 473.47146,274.86436 474.03437,275.39649 474.6126,276.17559 C 475.76908,277.73379 476.96455,280.24225 477.75022,283.21215 C 478.87999,287.4826 480.10477,290.45139 481.43693,292.30683 C 482.10304,293.23455 482.74435,293.90876 483.71171,294.30932 C 484.67909,294.70989 486.05658,294.6017 486.88855,294.08682 C 488.55252,293.05708 489.37075,291.12702 490.14384,288.13495 C 490.91695,285.14289 491.44856,281.08908 491.63421,276.03653 C 491.76264,272.54263 492.0655,270.80949 492.34018,268.91653 C 492.85964,270.47251 493.45448,271.9442 494.22275,273.08841 C 494.78343,273.92342 495.38001,274.60999 496.0661,275.14653 C 496.75223,275.68307 497.58345,276.11997 498.65464,276.11997 C 498.44892,276.11997 498.79481,276.15674 499.24295,276.6484 C 499.69111,277.14007 500.17634,277.93735 500.65488,278.95684 C 501.61198,280.99582 502.4617,283.87759 502.92966,287.05027 C 503.28652,289.46936 503.60971,291.25012 503.87095,292.36245 C 504.0016,292.91863 504.06097,293.26144 504.26315,293.61401 C 504.31371,293.70217 504.36602,293.79496 504.49847,293.91995 C 504.63094,294.04495 504.9243,294.27075 505.47898,294.30932 C 506.03368,294.34791 506.48815,294.12292 506.65559,293.97557 C 506.82305,293.82823 506.84159,293.70799 506.89091,293.61401 C 507.08824,293.23814 507.15984,292.89831 507.24389,292.33464 C 507.32797,291.77097 507.40406,291.03163 507.47921,290.10964 C 507.62954,288.26566 507.75796,285.67574 507.91064,282.29433 C 508.16342,276.69586 508.79777,272.68118 509.75399,270.25153 C 510.23213,269.03672 510.78392,268.25133 511.28358,267.85966 C 511.78327,267.468 512.05487,267.41837 512.61707,267.4981 C 513.88098,267.67736 515.1786,267.36878 516.1469,266.74716 C 516.51954,266.50795 516.73426,266.03955 517.04897,265.7181 L 517.04897,261.0456 C 516.76405,261.89047 516.48507,262.82561 516.1469,263.43748 C 515.60418,264.41948 514.98343,265.07641 514.46043,265.41216 C 513.93745,265.74792 513.60487,265.81926 513.08772,265.74591 C 511.75967,265.55758 510.37746,265.92906 509.44023,266.66372 C 508.50302,267.3984 507.85731,268.4194 507.32233,269.77872 C 506.2524,272.49737 505.65614,276.57734 505.40054,282.23871 C 505.3312,283.7751 505.27095,284.56095 505.20444,285.77089 C 504.7016,282.95251 503.96299,280.35135 503.04732,278.40059 C 502.52721,277.2925 501.96031,276.37566 501.32163,275.67497 C 500.68297,274.97428 499.91991,274.33997 498.65464,274.33997 C 498.66637,274.33998 498.38428,274.29123 497.94868,273.95059 C 497.5131,273.60996 496.98697,273.03858 496.49753,272.30966 C 495.51868,270.85181 494.63324,268.75765 494.14431,266.46904 C 494.01329,265.85559 493.86722,265.3765 493.71289,264.99498 C 493.63575,264.80422 493.55322,264.66058 493.43834,264.49435 C 493.32349,264.32813 493.23012,264.12533 492.81082,263.9381 C 492.39154,263.75088 491.51764,263.79901 491.16357,263.99373 C 490.80952,264.18845 490.71844,264.35963 490.61448,264.52216 C 490.4066,264.84724 490.26667,265.20293 490.14384,265.66247 C 489.65251,267.50065 489.30669,271.0127 489.12411,275.9809 C 488.94081,280.97005 488.40997,284.94874 487.67296,287.8012 C 486.93597,290.65368 485.77915,292.39115 485.2413,292.72401 C 484.97239,292.89045 485.18896,292.87165 484.96676,292.77964 C 484.74458,292.68764 484.22844,292.2746 483.67249,291.50026 C 482.5606,289.95161 481.32828,287.06353 480.2211,282.8784 C 479.40081,279.77759 478.19145,277.15114 476.84815,275.34122 C 476.17654,274.43626 475.47381,273.73963 474.6126,273.25528 C 474.18201,273.01312 473.69849,272.8202 473.12223,272.75466 C 472.76998,272.7146 472.41783,272.82226 472.06328,272.89372 C 471.96199,272.79421 471.76853,272.59515 471.55341,272.19841 C 471.05492,271.279 470.51696,269.71673 470.02382,267.69279 C 469.03758,263.64489 468.20397,257.75325 467.78826,251.03311 C 467.44328,245.45583 467.17522,241.18981 466.96464,238.32281 C 466.85936,236.88932 466.7775,235.80858 466.6901,235.06875 C 466.64642,234.69884 466.621,234.42764 466.57243,234.20657 C 466.54817,234.09604 466.50977,233.99869 466.45477,233.87282 C 466.4273,233.80989 466.42301,233.73135 466.29789,233.59469 C 466.23537,233.52637 466.11665,233.44572 465.90569,233.34438 C 465.69475,233.24304 465.31676,233.15604 464.9644,233.20532 C 464.16536,233.31712 464.09283,233.62393 464.02311,233.73375 C 463.95342,233.84359 463.92596,233.89382 463.90545,233.95625 C 463.86448,234.08112 463.85011,234.20576 463.82701,234.34563 C 463.78085,234.62537 463.75039,234.98843 463.70935,235.48594 C 463.6273,236.48097 463.56197,237.95737 463.47403,239.93594 C 463.29819,243.89307 463.07421,249.86372 462.80728,257.98623 C 462.36031,271.5882 461.90296,279.30266 460.96393,282.76715 C 460.7292,283.63328 460.44132,284.21718 460.21874,284.51933 C 459.9962,284.8215 459.97686,284.75012 460.10108,284.74183 C 460.22533,284.73356 460.03832,284.74107 459.63044,284.49152 C 459.22259,284.24198 458.69122,283.80094 458.06163,283.21215 C 455.75743,281.05731 454.10492,279.75132 452.10014,279.37402 C 451.09778,279.18539 449.96467,279.36755 449.19784,279.84684 C 448.51709,280.27234 448.05573,280.89627 447.62903,281.59902 C 447.30431,280.97499 446.8949,280.00556 446.68774,278.26153 C 446.44258,276.19738 446.26366,274.96715 445.78567,274.11747 C 445.6662,273.90506 445.58501,273.65364 445.11893,273.42216 C 444.8859,273.30642 444.49444,273.23279 444.13842,273.25528 C 443.78242,273.27778 443.49678,273.37397 443.31479,273.47778 C 442.58691,273.89304 442.55414,274.26219 442.29506,274.81278 L 442.21662,274.95184 L 442.21662,275.0909 L 442.21662,283.12871 L 442.21662,283.18433 C 441.74603,284.88096 441.3385,285.91528 441.00079,286.74433 C 440.61052,286.02398 440.22297,285.30993 439.58886,283.5459 C 438.72846,281.15223 437.63091,277.82123 436.21592,273.44997 L 430.13677,254.70436 L 427.70511,254.73217 L 423.15556,271.92028 C 422.15748,275.67315 421.34188,278.53555 420.68468,280.56996 C 420.40012,281.45092 420.29831,281.5267 420.05715,282.09965 C 419.85474,281.21807 419.64798,280.50383 419.42963,279.04027 C 419.00218,276.17513 418.15825,273.55792 417.07641,271.61434 C 416.53552,270.64256 415.9223,269.84405 415.23305,269.22247 C 414.54383,268.6009 413.68672,268.08216 412.52685,268.08216 C 412.42487,268.08217 412.20909,268.06188 411.86011,267.77622 C 411.51115,267.49058 411.10398,266.98838 410.76194,266.32997 C 410.07789,265.01318 409.62455,263.06791 409.62455,260.93435 C 409.6246,258.42861 409.2536,256.57479 408.52638,255.2328 C 408.16279,254.56181 407.72979,254.00695 407.11445,253.59186 C 406.49914,253.17678 405.66738,252.91519 404.83967,252.89655 C 404.5455,252.88997 404.33288,252.93415 404.17293,252.95217 C 402.91169,253.09431 401.83259,253.6318 400.79998,254.42623 C 399.7674,255.22067 398.75853,256.28106 397.81924,257.59686 C 395.94068,260.22847 394.29976,263.89058 393.23046,268.33247 C 392.37664,271.87939 391.12943,275.69745 389.8183,278.98465 C 388.50718,282.27186 387.06682,285.07047 386.05315,286.35496 C 385.29419,287.31672 384.61767,287.81173 384.44511,287.88464 C 384.40813,287.86345 384.34791,287.82941 384.17057,287.63433 C 383.28606,286.66137 382.01158,283.4197 380.5623,277.9834 L 376.83637,264.10498 L 374.9538,264.1606 L 374.9538,258.54248 L 374.9538,258.48686 L 374.9538,258.45904 C 374.84573,257.73951 374.74733,257.16646 374.64004,256.73467 C 374.58642,256.51878 374.51193,256.34585 374.44394,256.17842 C 374.37596,256.011 374.38506,255.87904 374.01251,255.59436 C 373.82626,255.45203 373.3666,255.22142 372.8359,255.28842 C 372.30523,255.35543 372.05418,255.58071 371.93384,255.70561 C 371.69318,255.9554 371.68023,256.08726 371.62007,256.26186 C 371.49979,256.61107 371.40038,257.05606 371.30631,257.68029 C 370.93007,260.17725 370.55405,265.38968 370.05126,273.72809 C 369.68903,279.73596 369.41559,284.24575 369.14919,287.41183 C 369.12552,287.69346 369.09422,287.81917 369.07075,288.07933 C 368.73924,286.5345 368.45966,285.33296 368.01181,283.01746 C 367.43697,280.04527 366.95217,277.70167 366.52143,275.9809 C 366.09073,274.26014 365.77101,273.21362 365.3056,272.50434 C 365.18927,272.32704 365.09848,272.16923 364.79574,271.97591 C 364.64439,271.87925 364.40096,271.7733 364.08977,271.72559 C 363.77861,271.6779 363.40393,271.71717 363.14849,271.80903 C 362.63763,271.99276 362.52616,272.21329 362.4033,272.39309 C 362.28047,272.57291 362.16541,272.74771 362.08954,272.94934 C 361.78611,273.75587 361.57693,274.99093 361.34435,276.78746 L 360.79527,281.0984 L 359.14802,276.6484 L 355.81429,267.2756 L 353.34341,267.47029 L 352.79433,278.40059 C 352.68349,280.45989 352.54618,282.08874 352.32368,283.29558 C 352.1172,284.41571 351.79091,285.09085 351.5785,285.40933 C 351.31367,285.25186 350.82611,284.93712 350.16657,284.2134 C 349.30628,283.26937 348.62445,282.59803 347.77413,282.15527 C 347.34899,281.9339 346.82006,281.73043 346.1661,281.7659 C 345.51215,281.80137 344.91987,282.11745 344.59728,282.4334 C 343.95212,283.0653 343.76326,283.81819 343.53833,284.93652 C 343.31343,286.05486 343.1416,287.52583 343.02847,289.3587 C 342.92768,290.99224 342.69372,291.4882 342.47939,292.33464 C 341.87597,291.03185 341.08568,289.83825 340.08695,288.9137 C 339.00004,287.90752 337.70019,287.18687 336.16492,287.05027 C 336.16639,287.05122 336.16583,287.02333 336.16492,287.02246 C 336.15793,287.01576 336.09231,286.98991 336.00804,286.88339 C 335.81753,286.64259 335.55752,286.16761 335.30207,285.54839 C 334.79118,284.30998 334.293,282.44059 333.8117,280.12496 C 332.84913,275.49372 332.02265,269.064 331.61536,261.99123 L 330.08577,236.23688 L 330.08577,236.18125 L 327.57567,236.18125 L 327.57567,236.23688 L 326.59516,264.32748 C 326.26088,274.07736 325.69755,280.75443 324.86947,284.49152 C 324.49767,286.16958 323.99299,287.06065 323.73208,287.41183 C 323.69444,287.37658 323.73297,287.40022 323.69286,287.3562 C 322.68231,286.24729 321.57651,284.06226 320.79056,281.57121 C 320.00463,279.08017 319.4931,276.25916 319.45707,273.7559 C 319.43239,272.03931 319.34421,270.66309 319.18252,269.58403 C 319.02086,268.50499 318.86711,267.73806 318.3589,267.10872 C 318.10481,266.79406 317.65251,266.45175 317.02541,266.32997 C 316.39833,266.2082 315.81004,266.35985 315.37816,266.55247 C 314.5144,266.93773 313.90197,267.53725 313.1426,268.3881 C 312.45297,269.16085 311.86946,269.60277 311.61301,269.7231 C 311.41695,269.56085 310.95541,269.00922 310.59328,268.05435 C 310.22608,267.08605 309.89017,265.72422 309.53433,264.02154 C 309.38872,263.32472 309.21552,262.7776 309.06369,262.32498 C 308.91187,261.87237 308.80946,261.55017 308.5146,261.21248 C 308.3672,261.04364 308.16072,260.7935 307.57331,260.68404 C 306.98594,260.57459 306.35582,260.8264 306.12216,261.01779 C 305.65488,261.40059 305.62639,261.67324 305.49464,262.07467 C 304.96766,263.68038 304.61411,267.00315 304.39647,272.14278 C 304.16365,277.64241 303.48662,282.41801 302.59234,286.16027 C 301.69807,289.90254 300.53295,292.64595 299.57237,293.89214 C 299.37588,294.14709 299.24105,294.30614 299.10173,294.42057 C 299.01426,294.3295 298.91102,294.27518 298.78797,294.05901 C 298.07974,292.81491 297.39283,289.69908 297.25837,284.68621 C 297.18741,282.03945 297.0557,279.91462 296.86617,278.28934 C 296.67667,276.66407 296.46836,275.55431 296.04254,274.75715 C 295.82966,274.35859 295.58168,273.95124 294.86594,273.70028 C 294.5081,273.57481 294.05975,273.54565 293.68933,273.61684 C 293.31892,273.68804 293.04664,273.83933 292.82648,273.9784 C 291.94585,274.53469 291.45435,275.32573 290.7478,276.53715 C 290.4457,277.05519 290.15593,277.42993 289.92418,277.70528 C 289.89865,277.65976 289.91022,277.67459 289.88496,277.62184 C 289.18069,276.15105 288.48186,272.21468 287.88472,265.85716 L 286.35513,248.66905 L 283.92347,248.44655 L 278.82483,259.37686 L 277.09914,263.10373 z "
       id="path9359"
       inkscape:export-xdpi="90"
       inkscape:export-ydpi="90" />
  </g>
</svg>
