<?xml version="1.0" encoding="UTF-8" standalone="no"?>
<!-- Created with Inkscape (http://www.inkscape.org/) -->

<svg
   xmlns:dc="http://purl.org/dc/elements/1.1/"
   xmlns:cc="http://creativecommons.org/ns#"
   xmlns:rdf="http://www.w3.org/1999/02/22-rdf-syntax-ns#"
   xmlns:svg="http://www.w3.org/2000/svg"
   xmlns="http://www.w3.org/2000/svg"
   xmlns:xlink="http://www.w3.org/1999/xlink"
   xmlns:sodipodi="http://sodipodi.sourceforge.net/DTD/sodipodi-0.dtd"
   xmlns:inkscape="http://www.inkscape.org/namespaces/inkscape"
   width="128"
   height="128"
   id="svg2"
   sodipodi:version="0.32"
   inkscape:version="0.92.4 5da689c313, 2019-01-14"
   sodipodi:docname="net.sourceforge.wavbreaker.svg"
   version="1.0">
  <defs
     id="defs4">
    <linearGradient
       id="linearGradient9327">
      <stop
         style="stop-color:white;stop-opacity:0;"
         offset="0"
         id="stop9329" />
      <stop
         style="stop-color:white;stop-opacity:0.64948452;"
         offset="0.75"
         id="stop9337" />
      <stop
         style="stop-color:white;stop-opacity:0;"
         offset="1"
         id="stop9331" />
    </linearGradient>
    <linearGradient
       id="linearGradient8411">
      <stop
         style="stop-color:#86ff01;stop-opacity:1;"
         offset="0"
         id="stop8413" />
      <stop
         id="stop8419"
         offset="0.5"
         style="stop-color:#86ff01;stop-opacity:1;" />
      <stop
         style="stop-color:#86ff01;stop-opacity:0;"
         offset="1"
         id="stop8415" />
    </linearGradient>
    <linearGradient
       id="linearGradient8397">
      <stop
         style="stop-color:#01b0ff;stop-opacity:0;"
         offset="0"
         id="stop8399" />
      <stop
         id="stop8421"
         offset="0.5"
         style="stop-color:#01b0ff;stop-opacity:1;" />
      <stop
         id="stop8409"
         offset="1"
         style="stop-color:#01b0ff;stop-opacity:1;" />
    </linearGradient>
    <linearGradient
       inkscape:collect="always"
       xlink:href="#linearGradient8411"
       id="linearGradient9525"
       gradientUnits="userSpaceOnUse"
       gradientTransform="matrix(1.397379,0,0,0.990929,-379.0353,-122.7195)"
       x1="432.87054"
       y1="373.1705"
       x2="495.71429"
       y2="373.1705" />
    <linearGradient
       inkscape:collect="always"
       xlink:href="#linearGradient8397"
       id="linearGradient9528"
       gradientUnits="userSpaceOnUse"
       gradientTransform="matrix(1.087398,0,0,0.990929,-262.0648,-122.7195)"
       x1="293.72321"
       y1="380.67422"
       x2="377.28571"
       y2="380.67422" />
    <linearGradient
       inkscape:collect="always"
       xlink:href="#linearGradient9327"
       id="linearGradient9531"
       gradientUnits="userSpaceOnUse"
       gradientTransform="matrix(0.984804,-0.135379,0.173668,0.767681,16.4195,41.02756)"
       x1="292.46454"
       y1="384.19513"
       x2="545.96454"
       y2="384.19513" />
    <linearGradient
       inkscape:collect="always"
       xlink:href="#linearGradient8411"
       id="linearGradient9533"
       gradientUnits="userSpaceOnUse"
       gradientTransform="matrix(1.25505,0,0,0.889999,11.95907,-65.79023)"
       x1="432.87054"
       y1="373.1705"
       x2="495.71429"
       y2="373.1705" />
    <linearGradient
       inkscape:collect="always"
       xlink:href="#linearGradient8397"
       id="linearGradient9535"
       gradientUnits="userSpaceOnUse"
       gradientTransform="matrix(1.25505,0,0,0.889999,11.95907,-65.79023)"
       x1="293.72321"
       y1="380.67422"
       x2="377.28571"
       y2="380.67422" />
    <linearGradient
       inkscape:collect="always"
       xlink:href="#linearGradient8397"
       id="linearGradient10434"
       x1="57.578693"
       y1="469.50415"
       x2="158.59393"
       y2="469.50415"
       gradientUnits="userSpaceOnUse" />
    <linearGradient
       inkscape:collect="always"
       xlink:href="#linearGradient8411"
       id="linearGradient10438"
       gradientUnits="userSpaceOnUse"
       x1="57.578693"
       y1="469.50415"
       x2="158.59393"
       y2="469.50415"
       gradientTransform="translate(201.9493,-1.03045)" />
    <linearGradient
       inkscape:collect="always"
       xlink:href="#linearGradient8397"
       id="linearGradient10663"
       gradientUnits="userSpaceOnUse"
       x1="57.578693"
       y1="469.50415"
       x2="158.59393"
       y2="469.50415"
       gradientTransform="matrix(1,0,0,2.141115,-27.14285,-657.9699)" />
    <linearGradient
       inkscape:collect="always"
       xlink:href="#linearGradient9327"
       id="linearGradient10665"
       gradientUnits="userSpaceOnUse"
       gradientTransform="matrix(0.45150875,-0.06206799,0.07962257,0.35196312,107.50801,229.02787)"
       x1="292.46454"
       y1="384.19513"
       x2="545.96454"
       y2="384.19513" />
    <linearGradient
       inkscape:collect="always"
       xlink:href="#linearGradient8411"
       id="linearGradient10667"
       gradientUnits="userSpaceOnUse"
       gradientTransform="matrix(0.57540999,0,0,0.40804296,99.463015,180.05454)"
       x1="432.87054"
       y1="373.1705"
       x2="495.71429"
       y2="373.1705" />
    <linearGradient
       inkscape:collect="always"
       xlink:href="#linearGradient8397"
       id="linearGradient10669"
       gradientUnits="userSpaceOnUse"
       gradientTransform="matrix(0.57540999,0,0,0.40804296,99.463015,180.05454)"
       x1="293.72321"
       y1="380.67422"
       x2="377.28571"
       y2="380.67422" />
  </defs>
  <sodipodi:namedview
     id="base"
     pagecolor="#ffffff"
     bordercolor="#666666"
     borderopacity="1.0"
     gridtolerance="10000"
     guidetolerance="10"
     objecttolerance="10"
     inkscape:pageopacity="0.0"
     inkscape:pageshadow="2"
     inkscape:zoom="1"
     inkscape:cx="5.293083"
     inkscape:cy="56.731419"
     inkscape:document-units="px"
     inkscape:current-layer="layer1"
     showguides="true"
     inkscape:guide-bbox="true"
     inkscape:window-width="1239"
     inkscape:window-height="911"
     inkscape:window-x="128"
     inkscape:window-y="136"
     width="270px"
     height="270px"
     showgrid="false"
     inkscape:window-maximized="0" />
  <metadata
     id="metadata7">
    <rdf:RDF>
      <cc:Work
         rdf:about="">
        <dc:format>image/svg+xml</dc:format>
        <dc:type
           rdf:resource="http://purl.org/dc/dcmitype/StillImage" />
        <dc:title></dc:title>
      </cc:Work>
    </rdf:RDF>
  </metadata>
  <g
     inkscape:label="Layer 1"
     id="layer1"
     inkscape:groupmode="layer"
     transform="translate(-262.6929,-272.635)">
    <g
       id="g60"
       transform="translate(-0.550015,1.9056997)">
      <path
         inkscape:connector-curvature="0"
         inkscape:export-ydpi="90"
         inkscape:export-xdpi="90"
         inkscape:export-filename="/home/thp/path9359.png"
         id="rect3821"
         d="m 330.81376,297.82593 c -0.063,-0.001 -0.1327,0.005 -0.1978,0.0127 -1.52238,0.17153 -3.58494,2.71386 -4.54933,6.71995 -0.79109,3.2861 -2.30214,7.06947 -3.34458,8.39039 -1.49671,1.89656 -2.26211,1.05166 -3.59631,-3.95291 l -1.70824,-6.36293 -0.93504,6.55419 v 58.77096 l 0.93504,3.53212 2.76916,-5.02403 c 2.54,-4.54189 2.90635,-4.70324 3.66823,-1.70868 0.46322,1.82063 1.93176,3.05349 3.23669,2.74154 3.2481,-0.7765 7.25143,3.22606 7.57023,7.5743 0.19127,2.60898 0.93755,1.82712 2.78714,-2.86906 2.47097,-6.27389 2.5688,-6.33758 3.54237,-2.15497 0.83042,3.56773 1.07936,3.28829 1.33064,-1.8362 0.16669,-3.39964 1.10677,-5.8338 2.1398,-5.38106 1.03301,0.45274 2.19376,-0.63589 2.58935,-2.42276 0.29419,-1.32903 1.04082,-0.16585 1.81613,2.62678 v -52.89258 c -0.0374,0.13518 -0.0686,0.23784 -0.10788,0.38254 -1.34957,4.97514 -1.339,4.93293 -4.0998,-3.59588 l -2.78714,-8.5944 -2.08587,7.88033 c -1.8325,6.89014 -2.23365,7.29754 -2.84108,3.22609 -0.38257,-2.56412 -1.54728,-4.65424 -2.58935,-4.65424 -1.04207,0 -1.90604,-1.647 -1.90604,-3.68514 0,-2.23811 -0.69098,-3.25582 -1.63632,-3.2771 z"
         style="fill:#ff2a2a;fill-opacity:1;stroke:none;stroke-width:7.2897644;stroke-miterlimit:4;stroke-dasharray:none;stroke-opacity:1" />
      <path
         inkscape:connector-curvature="0"
         inkscape:export-ydpi="90"
         inkscape:export-xdpi="90"
         inkscape:export-filename="/home/thp/path9359.png"
         id="path2932"
         d="m 295.98605,289.77437 -0.44954,12.90436 c -0.30703,8.95332 -1.03165,12.25436 -2.39155,10.76213 -1.07851,-1.18343 -1.99785,-4.08529 -2.03191,-6.45218 -0.0449,-3.11973 -0.51219,-3.72541 -1.83412,-2.24423 -1.37206,1.53733 -2.05557,1.00139 -2.71522,-2.15498 -0.52179,-2.49657 -1.00593,-1.0231 -1.20476,3.67239 -0.42991,10.15291 -4.17474,15.0118 -4.42347,5.7381 -0.12968,-4.83473 -0.63482,-5.73189 -1.88806,-3.58312 -1.23981,2.12577 -1.86044,0.82183 -2.40953,-5.02404 l -0.70128,-7.88033 -2.3376,5.01128 -2.3376,5.02403 -0.17982,-5.38106 c -0.14487,-4.27149 -1.41452,-5.87863 -2.60733,-5.01129 v 78.40803 c 0.12928,-0.18045 0.25819,-0.37256 0.3956,-0.59931 1.35811,-2.24126 1.88896,-1.44693 2.26568,3.59587 0.46813,6.26664 0.47664,6.20055 1.78017,-2.15497 0.73849,-4.73376 1.54134,-6.67684 1.76219,-4.30996 0.3758,4.0274 0.53227,4.12584 2.84109,1.44091 1.35686,-1.57793 3.54502,-5.13172 4.81906,-7.89309 l 2.3376,-5.02403 0.43156,7.17901 c 0.40157,6.38009 0.58637,6.6971 1.95999,2.86905 0.84928,-2.36688 1.70249,-3.49821 1.83412,-2.51201 0.13162,0.98619 1.3194,1.62539 2.66127,1.42815 1.45929,-0.2145 2.93182,2.1076 3.66824,5.73811 1.70311,8.3966 4.00054,9.3366 4.17172,1.70867 0.14618,-6.51465 3.42628,-14.90035 3.72218,-9.49975 0.0782,1.42724 1.04522,2.18354 2.15779,1.69593 1.11419,-0.48833 2.13343,0.64935 2.21173,2.47376 0.13429,3.12911 0.19174,3.10563 1.83412,0.39529 1.52058,-2.50932 1.8094,-2.32308 2.21173,1.44091 0.33362,3.12145 0.82789,2.33336 1.83412,-2.86906 1.32811,-6.86659 1.45604,-6.68935 2.08586,4.29721 0.28794,5.02286 0.70723,7.72622 1.09687,7.35752 V 300.0137 c -0.39063,-2.60008 -0.63603,-0.66769 -1.09687,6.97498 -0.66447,11.01922 -0.75379,11.18422 -2.08586,4.29721 -1.05229,-5.44047 -1.48345,-6.13333 -1.90605,-2.86905 l -0.55743,4.2972 -1.58237,-4.2972 -1.52844,-4.29721 -0.25174,5.01128 c -0.2048,3.80377 -0.78005,4.49925 -2.26567,2.86905 -1.51964,-1.66748 -2.00589,-1.18001 -2.21174,2.15498 -0.1509,2.44469 -0.67922,3.22401 -1.20476,1.79794 -0.50879,-1.38068 -1.72923,-2.51202 -2.71522,-2.51202 -0.986,0 -2.08865,-5.32432 -2.46347,-11.83324 z"
         style="fill:url(#linearGradient10669);fill-opacity:1;stroke:none;stroke-width:0.45847574;stroke-opacity:1" />
      <path
         inkscape:connector-curvature="0"
         inkscape:export-ydpi="90"
         inkscape:export-xdpi="90"
         inkscape:export-filename="/home/thp/path9359.png"
         id="path2930"
         d="m 358.50279,288.78523 c -0.15423,0.0215 -0.27671,3.53115 -0.52146,10.9789 -0.41007,12.47776 -0.81303,14.04474 -3.2187,11.795 -2.06958,-1.93542 -3.07577,-2.12552 -3.86604,-0.72683 -0.58082,1.02802 -1.22222,0.22547 -1.4565,-1.74693 -0.22268,-1.8745 -0.46572,-2.41289 -0.89908,-1.49191 v 59.05148 c 1.79128,9.11291 1.80756,9.10616 2.93099,3.09858 1.47205,-7.8719 5.59482,-6.31427 6.68914,2.51201 0.66672,5.3775 0.85537,4.95244 1.15082,-2.69053 0.30728,-7.94789 0.70637,-8.94844 3.34457,-7.39578 1.66886,0.98217 3.17789,3.48656 3.34457,5.55959 0.28678,3.5662 0.38017,3.52338 1.33064,-0.54831 0.99915,-4.28023 1.00563,-4.28094 2.40953,-0.71408 1.2972,3.29584 1.66515,3.06344 4.17172,-2.86905 2.26582,-5.36271 2.84943,-5.84834 3.41649,-2.86905 1.41755,7.44751 2.70146,10.15476 4.60328,9.32123 1.07993,-0.47331 2.07959,10e-5 2.15779,1.03286 0.0397,0.52471 0.27326,0.6501 0.61137,0.4463 v -78.21676 c -0.52687,0.9931 -0.97074,2.53684 -1.18678,4.65425 -0.40177,3.93756 -1.53162,5.96973 -3.16475,5.7381 -1.73331,-0.24582 -2.60802,2.01664 -2.84109,7.17901 -0.27976,6.19548 -0.48006,6.58031 -1.13284,2.15498 -0.4364,-2.95861 -1.56388,-5.38107 -2.5354,-5.38107 -0.97152,0 -2.17977,-1.78328 -2.64329,-3.95292 -0.46348,-2.16964 -0.98409,-0.22657 -1.15082,4.30996 -0.33834,9.20773 -3.18148,10.97944 -5.23263,3.22609 -0.73632,-2.78328 -2.15584,-4.70113 -3.16475,-4.25895 -1.01683,0.44563 -2.15258,-4.21673 -2.53541,-10.4051 -0.31639,-5.11441 -0.47528,-7.81011 -0.61137,-7.79107 z"
         style="fill:url(#linearGradient10667);fill-opacity:1;stroke:none;stroke-width:0.45847574;stroke-opacity:1" />
      <path
         inkscape:connector-curvature="0"
         inkscape:export-ydpi="90"
         inkscape:export-xdpi="90"
         inkscape:export-filename="/home/thp/path9359.png"
         id="path7508"
         d="m 381.3211,371.12772 v -0.81609 c -0.0946,0.0299 -0.19708,0.024 -0.2877,0.0638 -0.16616,0.0728 -0.26377,0.0924 -0.34165,0.0893 -0.0779,-0.003 -0.15542,-0.0331 -0.28771,-0.11476 -0.26456,-0.16325 -0.65403,-0.59229 -1.00696,-1.31339 -0.70586,-1.4422 -1.37893,-3.97499 -2.08587,-7.68906 -0.14378,-0.75547 -0.28228,-1.29323 -0.50348,-1.67043 -0.11059,-0.18859 -0.22939,-0.39508 -0.62936,-0.48455 -0.19996,-0.0447 -0.43528,-0.0184 -0.59339,0.0382 -0.15809,0.0567 -0.26565,0.13796 -0.35963,0.21678 -0.3759,0.31526 -0.65375,0.78881 -1.04293,1.55566 -0.38916,0.76685 -0.85282,1.80592 -1.42054,3.14958 -0.62582,1.4812 -1.11104,2.60279 -1.51045,3.39186 -0.34947,0.69044 -0.61336,1.01544 -0.75523,1.16037 -0.20495,-0.28628 -0.47433,-0.86538 -0.79119,-1.67043 -0.35099,-0.89179 -0.61954,-1.5685 -0.84513,-2.02746 -0.11278,-0.22947 -0.20848,-0.39606 -0.34165,-0.54831 -0.0666,-0.0761 -0.13711,-0.15667 -0.2877,-0.22952 -0.15059,-0.0729 -0.4523,-0.11404 -0.66532,-0.051 -0.42604,0.12606 -0.44887,0.30506 -0.53945,0.48455 -0.0906,0.1795 -0.16766,0.40689 -0.25174,0.68858 -0.16815,0.56338 -0.34358,1.36538 -0.59339,2.4355 -0.0751,0.32192 -0.11496,0.45553 -0.17982,0.72683 -0.005,-0.061 -0.0129,-0.077 -0.018,-0.14026 -0.17641,-2.19412 -1.63477,-4.71745 -3.54237,-5.84012 -0.68839,-0.40515 -1.2481,-0.71346 -1.95998,-0.71407 -0.35594,-3.1e-4 -0.72615,0.11567 -0.97101,0.30603 -0.24485,0.19036 -0.40788,0.43174 -0.53945,0.72682 -0.52625,1.18033 -0.67334,3.39197 -0.82715,7.37028 -0.0351,0.90784 -0.0749,1.3855 -0.10789,2.09122 -0.282,-1.93594 -0.69637,-3.54961 -1.22275,-4.73075 -0.58213,-1.30629 -1.2097,-2.17389 -2.17576,-2.53752 -0.48302,-0.18181 -1.08731,-0.17232 -1.5644,0.0255 -0.47707,0.19784 -0.852,0.5306 -1.18678,0.98186 -0.66956,0.90251 -1.20944,2.31563 -1.58238,4.30995 -0.23422,1.25257 -0.39663,2.06489 -0.55743,2.75429 -0.0597,-0.23001 -0.11193,-0.39123 -0.17981,-0.68857 -0.26907,-1.1787 -0.59513,-2.88616 -1.04293,-5.1643 v -4.62871 -0.051 l -0.018,-0.0382 c -0.33128,-1.01165 -0.59662,-1.67131 -0.971,-2.07847 -0.0936,-0.10179 -0.19379,-0.20268 -0.41357,-0.28053 -0.21978,-0.0778 -0.60874,-0.0507 -0.79119,0.0638 -0.36491,0.22902 -0.36165,0.44927 -0.43156,0.76509 -0.18719,0.84557 -0.57431,1.51983 -0.95303,1.87444 -0.18935,0.17731 -0.37193,0.26435 -0.4855,0.29328 -0.11355,0.0289 -0.15816,0.0313 -0.2877,-0.0255 -0.2438,-0.10684 -0.58338,-0.14341 -0.86311,-0.0765 -0.27973,0.0669 -0.48636,0.19583 -0.64734,0.34429 -0.32195,0.29693 -0.53439,0.69664 -0.73725,1.21138 -0.40569,1.02949 -0.68871,2.51038 -0.7732,4.23344 -0.042,0.85622 -0.0815,1.377 -0.12587,1.96371 -0.0189,-0.0795 -0.0344,-0.0947 -0.0539,-0.17852 -0.24367,-1.0469 -0.42977,-1.82302 -0.62935,-2.34624 -0.0998,-0.26161 -0.1782,-0.46429 -0.37761,-0.65032 -0.0997,-0.093 -0.2664,-0.20148 -0.52147,-0.22953 -0.25506,-0.0281 -0.49515,0.0585 -0.62935,0.14027 -0.2684,0.16359 -0.38297,0.34137 -0.53945,0.59931 -0.15647,0.25795 -0.31463,0.58944 -0.50349,1.00735 -0.3777,0.83585 -0.85654,2.02692 -1.47448,3.59589 -0.46081,1.17002 -0.8418,2.08668 -1.1688,2.76704 -0.17022,0.35418 -0.26193,0.44386 -0.3956,0.66307 -0.0323,-0.1852 -0.0708,-0.224 -0.0899,-0.48455 -0.16539,-2.25607 -1.26761,-4.39667 -2.78714,-5.91663 -0.75975,-0.75997 -1.63237,-1.37227 -2.57136,-1.74693 -0.93898,-0.37465 -1.97922,-0.50391 -2.96696,-0.26778 -0.3731,0.0892 -0.81141,-0.0229 -1.31265,-0.4463 -0.50124,-0.42338 -0.95202,-1.13719 -1.16881,-1.98921 -0.19204,-0.75489 -0.36066,-1.31159 -0.57541,-1.70868 -0.10735,-0.19854 -0.20597,-0.36594 -0.46751,-0.51005 -0.13076,-0.0721 -0.32726,-0.12778 -0.52147,-0.12751 -0.1942,2.7e-4 -0.35648,0.055 -0.4855,0.11476 -0.51607,0.2392 -0.75387,0.61254 -1.1688,1.23688 -0.41492,0.62434 -0.92808,1.48895 -1.5644,2.62678 l -2.03191,3.68513 -0.48551,-1.84894 -1.15082,0.0765 v 3.86365 c -0.12913,-2.21622 -0.23638,-4.17008 -0.34165,-5.43207 -0.0609,-0.73023 -0.13469,-1.29764 -0.19779,-1.73418 -0.0631,-0.43654 -0.1039,-0.71746 -0.21578,-0.9436 -0.028,-0.0565 -0.0533,-0.10755 -0.12587,-0.17852 -0.0725,-0.071 -0.2415,-0.19643 -0.50349,-0.20402 -0.26197,-0.008 -0.44124,0.0997 -0.52146,0.16576 -0.0802,0.0661 -0.10983,0.12478 -0.14385,0.17853 -0.13608,0.21498 -0.21667,0.46836 -0.32367,0.86709 -0.21399,0.79745 -0.47693,2.08214 -0.80917,3.7999 -0.25095,1.29752 -0.45689,2.31379 -0.64734,3.06032 -0.009,-0.0788 -0.0269,-0.0812 -0.0359,-0.16577 -0.10092,-0.9444 -0.19373,-1.66423 -0.30568,-2.19323 -0.056,-0.2645 -0.12151,-0.48154 -0.1978,-0.66307 -0.0763,-0.18152 -0.13003,-0.33515 -0.35963,-0.48455 -0.11479,-0.0747 -0.31043,-0.14801 -0.50348,-0.15301 -0.19304,-0.005 -0.35042,0.0478 -0.46752,0.10201 -0.23419,0.10835 -0.35981,0.23452 -0.50349,0.39528 -0.28734,0.32154 -0.58722,0.79484 -0.971,1.42816 -0.2844,0.46935 -0.47219,0.73441 -0.66532,1.03286 -0.029,-0.35629 -0.0472,-0.71194 -0.0719,-1.28789 -0.0414,-0.96343 -0.31597,-1.75671 -0.80918,-2.30799 -0.24659,-0.27564 -0.5556,-0.50309 -0.971,-0.61207 -0.41539,-0.10897 -0.91573,-0.0592 -1.31265,0.11477 -0.18984,0.0832 -0.31515,0.099 -0.41358,0.0892 -0.0984,-0.01 -0.19949,-0.0428 -0.32367,-0.14026 -0.24833,-0.19489 -0.50375,-0.66217 -0.53944,-1.31339 -0.0379,-0.69173 -0.12124,-1.17242 -0.26973,-1.51741 -0.0742,-0.17249 -0.14896,-0.32189 -0.35963,-0.45905 -0.21065,-0.13716 -0.65349,-0.16631 -0.89907,-0.0765 -0.49117,0.17961 -0.61867,0.4457 -0.84514,0.81609 -0.22646,0.3704 -0.44195,0.85761 -0.66532,1.42815 -0.89345,2.28214 -1.75998,6.01815 -1.83412,9.32123 -0.0424,1.89234 -0.21798,3.24184 -0.46752,4.04218 -0.10386,0.33315 -0.21834,0.50806 -0.30568,0.62481 -0.0741,-0.0629 -0.1334,-0.10166 -0.26973,-0.30602 -0.19911,-0.29852 -0.42412,-0.73977 -0.64733,-1.30064 -0.44642,-1.12174 -0.90723,-2.73259 -1.33064,-4.82001 -0.37343,-1.84105 -0.93908,-3.35972 -1.61834,-4.42472 -0.33961,-0.5325 -0.69538,-0.96119 -1.13284,-1.26238 -0.43745,-0.30119 -1.01466,-0.48138 -1.60036,-0.39529 -1.03385,0.15197 -1.87471,-0.29768 -1.97797,-1.07112 -0.0197,-0.1475 -0.0409,-0.26237 -0.12587,-0.39529 -0.0425,-0.0664 -0.099,-0.14757 -0.21578,-0.21677 -0.11681,-0.0692 -0.31633,-0.12136 -0.4855,-0.11476 -0.33833,0.0132 -0.47694,0.14477 -0.59339,0.24227 -0.11644,0.0975 -0.20978,0.20151 -0.30569,0.33154 -0.3836,0.52009 -0.81011,1.40125 -1.24072,2.60127 -0.2065,0.57549 -0.33139,0.85092 -0.48551,1.22413 -0.0164,-0.1243 -0.038,-0.19954 -0.0539,-0.34429 -0.0941,-0.85679 -0.18738,-2.06585 -0.28771,-3.65963 l -0.43155,-7.17901 -1.11486,-0.11476 -2.3376,5.02403 c -1.25884,2.72847 -3.46501,6.29194 -4.76511,7.80382 -0.57488,0.66854 -1.02592,1.17132 -1.33064,1.44091 -0.0276,0.0245 -0.0285,0.0177 -0.0539,0.0382 -0.0423,-0.11804 -0.0863,-0.25531 -0.12587,-0.45905 -0.099,-0.50989 -0.17593,-1.26464 -0.26972,-2.26974 -0.0285,-0.30581 -0.0737,-0.54728 -0.12587,-0.73958 -0.0521,-0.19229 -0.0237,-0.32752 -0.32367,-0.5228 -0.15,-0.0976 -0.52919,-0.14772 -0.73724,-0.0765 -0.20805,0.0712 -0.2774,0.15557 -0.34165,0.22953 -0.12851,0.14791 -0.20084,0.29829 -0.28771,0.51005 -0.34744,0.84704 -0.72605,2.51964 -1.09687,4.89652 -0.10718,0.68703 -0.17022,1.05368 -0.25175,1.55566 v 5.33006 c 0.0281,-0.0255 0.10958,-0.0563 0.12588,-0.0765 0.0906,-0.11247 0.10702,-0.19859 0.14385,-0.30603 0.0368,-0.10743 0.0704,-0.22606 0.10789,-0.38254 0.0751,-0.31295 0.15553,-0.74341 0.25174,-1.28788 0.19243,-1.08895 0.44733,-2.65463 0.77321,-4.7435 0.25534,-1.63657 0.49882,-2.41615 0.73724,-3.3026 0.05,0.44581 0.10152,0.98995 0.16183,1.30063 0.0541,0.27869 0.11334,0.50883 0.1978,0.70133 0.0845,0.19251 0.17118,0.3671 0.44954,0.51005 0.13919,0.0715 0.34214,0.12093 0.52147,0.11477 0.17933,-0.006 0.32966,-0.0511 0.44954,-0.10202 0.23975,-0.10174 0.40053,-0.23742 0.59339,-0.40804 0.38572,-0.34123 0.82303,-0.84348 1.40256,-1.51741 1.41369,-1.64394 3.60177,-5.18809 4.89098,-7.98234 l 1.34862,-2.88181 0.28771,4.93477 c 0.10049,1.59628 0.1913,2.80773 0.2877,3.68514 0.0482,0.43872 0.10398,0.79253 0.16183,1.07111 0.0579,0.27859 0.09,0.47625 0.21578,0.66307 0.0629,0.0934 0.1602,0.21851 0.43156,0.29329 0.27137,0.0748 0.59067,-0.0297 0.71926,-0.11476 0.2572,-0.17011 0.31284,-0.32434 0.43156,-0.54831 0.23747,-0.44794 0.5005,-1.14354 0.84513,-2.10398 0.35059,-0.97697 0.67613,-1.57436 0.95302,-2.02746 0.49016,0.87742 1.73911,1.43851 3.11082,1.23688 0.14398,-0.0212 0.28534,0.004 0.55743,0.19127 0.27209,0.18734 0.59611,0.53234 0.89907,1.00736 0.60594,0.95005 1.14748,2.41849 1.51045,4.20794 0.42818,2.11089 0.89791,3.75709 1.3666,4.93477 0.23436,0.58885 0.47682,1.05195 0.71926,1.4154 0.24245,0.36345 0.45189,0.63497 0.86312,0.80334 0.20562,0.0842 0.50055,0.12169 0.75522,0.0638 0.25469,-0.0579 0.42567,-0.17665 0.55743,-0.30603 0.26355,-0.25876 0.41613,-0.59242 0.55743,-1.04561 0.2826,-0.90636 0.46036,-2.28631 0.50348,-4.20794 0.0721,-3.21156 0.92308,-6.92798 1.78018,-9.11722 0.21428,-0.5473 0.4374,-0.99945 0.62935,-1.31338 0.0607,0.24221 0.136,0.45932 0.16184,0.93085 0.0425,0.77603 0.31228,1.40528 0.84513,1.82344 0.26644,0.20908 0.60873,0.36854 1.00697,0.40804 0.39825,0.0395 0.82034,-0.0434 1.18678,-0.20402 0.1602,-0.0702 0.21416,-0.0623 0.30569,-0.0382 0.0915,0.024 0.23833,0.10475 0.39559,0.28053 0.31455,0.35158 0.5924,1.03898 0.62936,1.89995 0.0336,0.78319 0.0552,1.36796 0.10789,1.78519 0.0264,0.20862 0.0708,0.3755 0.12587,0.5228 0.0276,0.0737 0.0582,0.14879 0.12587,0.22953 0.0676,0.0807 0.18772,0.18513 0.41357,0.22952 0.22586,0.0444 0.45485,-0.007 0.57541,-0.0637 0.12057,-0.0568 0.18644,-0.1187 0.25174,-0.17852 0.13062,-0.11964 0.23284,-0.2557 0.35964,-0.43355 0.25359,-0.35568 0.57802,-0.86473 0.98898,-1.54291 0.31451,-0.51899 0.53811,-0.84353 0.73725,-1.09661 0.0257,0.0904 0.0469,0.14952 0.0719,0.26777 0.10288,0.48613 0.18749,1.20465 0.2877,2.14223 0.0844,0.78923 0.17036,1.31802 0.30569,1.67042 0.0338,0.0881 0.064,0.17199 0.12587,0.25503 0.0619,0.0831 0.16074,0.19139 0.43156,0.25503 0.27084,0.0636 0.56731,-0.0427 0.6833,-0.12751 0.116,-0.0848 0.16469,-0.14929 0.21578,-0.22953 0.20435,-0.32095 0.36178,-0.80154 0.55743,-1.56841 0.19565,-0.76687 0.41316,-1.80765 0.66532,-3.11133 0.20996,-1.08548 0.34787,-1.65805 0.50348,-2.37175 0.013,0.14214 0.0229,0.21315 0.0359,0.36978 0.12081,1.44816 0.23817,3.51479 0.3956,6.26092 0.14428,2.5165 0.32935,4.46326 0.52146,5.7381 0.0961,0.63743 0.19289,1.09499 0.30569,1.4154 0.0564,0.16021 0.0824,0.28488 0.23376,0.43355 0.0757,0.0743 0.23732,0.19507 0.52147,0.20402 0.28415,0.009 0.47505,-0.12608 0.55742,-0.20402 l 0.10789,-0.10201 v -0.14027 -7.68906 l 0.0899,0.34429 0.73724,-1.32614 2.76916,-5.02403 c 0.6337,-1.13312 1.13649,-1.98603 1.52844,-2.57577 0.28872,-0.43441 0.43421,-0.55514 0.55743,-0.67582 0.14091,0.28814 0.30895,0.77245 0.4855,1.4664 0.24646,0.96863 0.74549,1.7888 1.42054,2.359 0.67507,0.5702 1.62157,0.91133 2.55338,0.68857 0.63634,-0.15211 1.31477,-0.0765 2.0499,0.21677 0.73514,0.29332 1.50682,0.81753 2.19375,1.50466 1.37388,1.37426 2.41797,3.40367 2.57136,5.49583 0.0489,0.66705 0.11262,1.10284 0.30569,1.4409 0.0483,0.0845 0.10154,0.17035 0.21578,0.25503 0.11425,0.0847 0.32,0.16826 0.53945,0.16577 0.43889,-0.005 0.60602,-0.19013 0.75522,-0.34429 0.2984,-0.30831 0.55998,-0.77364 0.89908,-1.47915 0.3391,-0.70551 0.74078,-1.63999 1.20476,-2.81805 0.61756,-1.56797 1.0905,-2.74769 1.45651,-3.55763 0.15538,-0.3438 0.27777,-0.58289 0.3956,-0.79058 0.16264,0.45549 0.34598,1.15659 0.57541,2.14223 0.20856,0.89602 0.36677,1.55177 0.52146,1.97645 0.0774,0.21235 0.13016,0.35128 0.26972,0.51006 0.0698,0.0794 0.19734,0.24634 0.55743,0.25503 0.18006,0.004 0.34076,-0.0581 0.43156,-0.11476 0.0908,-0.0567 0.12873,-0.10869 0.16183,-0.15302 0.13241,-0.17734 0.15307,-0.31555 0.1978,-0.53556 0.0448,-0.22001 0.0895,-0.50343 0.12587,-0.85434 0.0728,-0.70181 0.13487,-1.68773 0.1978,-2.97106 0.0822,-1.67658 0.355,-3.11785 0.71926,-4.04218 0.18215,-0.46216 0.40737,-0.79246 0.55743,-0.93085 0.0541,-0.0499 0.0651,-0.0469 0.0719,-0.051 0.37201,0.13983 0.82662,0.17286 1.20477,0.0765 0.40699,-0.10369 0.72756,-0.3122 1.00697,-0.57381 0.46085,-0.43152 0.78096,-1.06039 1.00697,-1.78519 0.16075,0.31429 0.30959,0.51426 0.50347,1.09661 v 4.62874 0.0255 0.0382 c 0.44786,2.27832 0.78804,3.98174 1.06092,5.17705 0.13644,0.59765 0.26459,1.06122 0.37761,1.41539 0.11303,0.35418 0.16929,0.57205 0.37762,0.79059 0.0521,0.0546 0.11947,0.12267 0.25174,0.17852 0.13227,0.0559 0.36426,0.0779 0.53944,0.0382 0.35039,-0.0793 0.3982,-0.22548 0.46753,-0.33153 0.13866,-0.2121 0.22683,-0.46575 0.32366,-0.82884 0.19368,-0.72618 0.40242,-1.85159 0.6833,-3.35361 0.3631,-1.94162 0.90484,-3.28583 1.45651,-4.02942 0.27584,-0.37179 0.54896,-0.58499 0.73724,-0.66307 0.18829,-0.0781 0.25683,-0.0725 0.44954,0 0.38544,0.14508 1.07369,0.83081 1.61834,2.05297 0.54466,1.22216 1.00574,2.95344 1.27669,5.13879 0.16696,1.34652 0.3122,2.33163 0.43156,2.94556 0.0597,0.30697 0.0989,0.50453 0.17981,0.67582 0.0202,0.0428 0.0381,0.0809 0.0899,0.14027 0.0519,0.0594 0.1617,0.19186 0.46752,0.21677 0.15292,0.0125 0.30214,-0.0311 0.39559,-0.0765 0.0935,-0.0454 0.14727,-0.0925 0.17982,-0.12751 0.0651,-0.0701 0.0708,-0.10846 0.0899,-0.15302 0.0766,-0.17822 0.10553,-0.37585 0.14385,-0.68857 0.0383,-0.31272 0.0729,-0.71864 0.10789,-1.23688 0.0701,-1.03649 0.14188,-2.50014 0.21578,-4.41197 0.15349,-3.96956 0.36356,-6.23474 0.77321,-7.1535 0.10242,-0.22969 0.21736,-0.36611 0.2877,-0.4208 0.0704,-0.0547 0.0686,-0.0383 0.12587,-0.0382 0.11455,1e-4 0.59205,0.15162 1.22275,0.52281 1.43017,0.84168 2.97184,3.31436 3.12879,5.2663 0.0718,0.89286 0.13138,1.56399 0.1978,2.01471 0.0332,0.22537 0.0742,0.39272 0.12587,0.53556 0.0259,0.0714 0.0271,0.12791 0.12587,0.22952 0.0494,0.0508 0.13552,0.11998 0.30568,0.16577 0.17019,0.0458 0.39799,0.0258 0.52147,-0.0255 0.24697,-0.10251 0.26138,-0.18586 0.30569,-0.25502 0.0443,-0.0692 0.075,-0.13662 0.10789,-0.21678 0.0658,-0.16031 0.14075,-0.37154 0.21577,-0.63757 0.15006,-0.53204 0.33758,-1.30187 0.57541,-2.32074 0.2457,-1.05245 0.41909,-1.82977 0.57541,-2.359 0.18891,0.41441 0.39992,0.93025 0.70129,1.69593 0.32667,0.82997 0.593,1.43182 0.89907,1.84895 0.15305,0.20856 0.30394,0.39547 0.64734,0.51005 0.17171,0.0573 0.40177,0.0753 0.59339,0.0382 0.19164,-0.037 0.33186,-0.11088 0.44954,-0.19128 0.47071,-0.32157 0.73574,-0.81214 1.15082,-1.63217 0.4151,-0.82002 0.91896,-1.95781 1.54642,-3.44286 0.5652,-1.33768 1.02732,-2.35921 1.40256,-3.09858 0.26209,-0.51642 0.41104,-0.69905 0.57541,-0.9181 0.10033,0.26754 0.20153,0.53664 0.30568,1.08387 0.71064,3.73345 1.39187,6.28992 2.15779,7.85483 0.38297,0.78246 0.77529,1.32776 1.33063,1.67042 0.27769,0.17134 0.60913,0.2788 0.97101,0.29329 0.2477,0.01 0.47285,-0.0733 0.70128,-0.14027 z"
         style="fill:#000000;fill-opacity:1;stroke:none;stroke-width:0.91695148;stroke-miterlimit:4;stroke-dasharray:none;stroke-opacity:1" />
      <path
         inkscape:connector-curvature="0"
         inkscape:export-ydpi="90"
         inkscape:export-xdpi="90"
         inkscape:export-filename="/home/thp/path9359.png"
         id="path5699"
         d="m 273.50346,301.25697 v 2.60127 l 1.88806,-4.05492 1.38458,-3.00932 0.52147,5.77636 c 0.27532,2.9311 0.53636,4.70292 0.971,5.61059 0.10867,0.22692 0.22643,0.40326 0.44954,0.56106 0.11156,0.0789 0.25758,0.15174 0.44954,0.17852 0.19197,0.0268 0.40834,0.002 0.55743,-0.051 0.29818,-0.10554 0.4481,-0.25951 0.61137,-0.44629 0.16328,-0.18678 0.32332,-0.42324 0.4855,-0.70133 0.16894,-0.28964 0.23407,-0.33226 0.35963,-0.48455 0.0836,0.25251 0.18891,0.50672 0.25174,1.04561 0.0835,0.71569 0.12955,1.67792 0.16184,2.88181 0.0627,2.33857 0.31237,3.78097 0.77321,4.59048 0.11522,0.20238 0.24218,0.37044 0.43155,0.51005 0.18939,0.13962 0.50019,0.2429 0.80917,0.22953 0.30899,-0.0134 0.55161,-0.1253 0.73725,-0.25503 0.18565,-0.12972 0.32236,-0.28348 0.46752,-0.4718 0.58065,-0.75328 1.08962,-2.03889 1.51045,-3.7999 0.42084,-1.761 0.73695,-3.98642 0.84513,-6.54144 0.0619,-1.46097 0.18024,-1.98183 0.28771,-2.77979 0.0966,0.37216 0.19972,0.80445 0.30568,1.08386 0.18821,0.49624 0.3646,0.85556 0.70128,1.12212 0.16836,0.13329 0.404,0.2527 0.6833,0.28053 0.27932,0.0278 0.54412,-0.0354 0.75523,-0.12752 0.42223,-0.18419 0.73424,-0.48626 1.09687,-0.89259 0.22262,-0.24941 0.34374,-0.32937 0.46752,-0.42079 0.0613,0.13077 0.14635,0.26872 0.1978,0.61206 0.0674,0.44999 0.0968,1.06335 0.10789,1.83619 0.0176,1.21921 0.26985,2.56523 0.64734,3.76165 0.37749,1.19643 0.85932,2.24504 1.47448,2.92006 0.20257,0.22227 0.41151,0.40888 0.7912,0.4973 0.18985,0.0442 0.42025,0.0313 0.61137,-0.0255 0.19112,-0.0568 0.34216,-0.14484 0.44953,-0.24227 0.42951,-0.38972 0.5915,-0.96048 0.7912,-1.8617 0.39939,-1.80242 0.65544,-4.86349 0.80916,-9.34673 l 0.018,-0.76509 c 0.1934,3.13846 0.55367,6.00274 0.98898,8.09711 0.22512,1.08305 0.47572,1.96735 0.73725,2.60127 0.13077,0.31697 0.25044,0.57165 0.41357,0.77784 0.0816,0.1031 0.1753,0.19562 0.30569,0.28052 0.13041,0.0849 0.33121,0.16578 0.57541,0.16578 0.18265,0 0.64326,0.17053 1.07889,0.57381 0.43565,0.40327 0.84325,0.99267 1.0789,1.63216 0.1406,0.38151 0.22338,0.63002 0.53944,0.85435 0.079,0.0561 0.18791,0.10876 0.34165,0.14026 0.15375,0.0315 0.34541,0.0194 0.4855,-0.0255 0.28021,-0.0898 0.36783,-0.22277 0.44954,-0.34428 0.32687,-0.48606 0.44487,-1.25803 0.52147,-2.49927 0.0511,-0.82716 0.12234,-1.47367 0.21578,-1.9382 0.0757,-0.37613 0.17008,-0.54317 0.23376,-0.65032 0.15689,0.10402 0.38567,0.29125 0.70128,0.63757 0.39073,0.42874 0.71435,0.72665 1.1688,0.90534 0.22724,0.0894 0.53781,0.13755 0.82715,0.0638 0.28936,-0.0738 0.48267,-0.23381 0.61137,-0.39529 0.25743,-0.32297 0.37564,-0.74294 0.48551,-1.3389 0.10988,-0.59595 0.1822,-1.36299 0.23376,-2.32074 l 0.10789,-2.14222 0.53944,1.5174 1.58238,4.29721 1.13284,-0.0638 0.55743,-4.2972 c 0.0231,-0.17845 0.0483,-0.20278 0.0719,-0.35704 0.009,0.0336 0.009,0.0291 0.018,0.0638 0.19254,0.76911 0.40275,1.81753 0.66533,3.17508 0.33318,1.72258 0.59796,3.0124 0.80916,3.81266 0.10561,0.40013 0.17354,0.66552 0.30569,0.87984 0.0331,0.0536 0.0662,0.0997 0.14385,0.16576 0.0776,0.0661 0.25437,0.17085 0.52147,0.16577 0.26711,-0.005 0.43124,-0.11989 0.50348,-0.19127 0.0723,-0.0714 0.0984,-0.12222 0.12587,-0.17852 0.10979,-0.22517 0.17122,-0.50681 0.23376,-0.9436 0.0626,-0.43678 0.11826,-1.01528 0.17982,-1.74693 0.10715,-1.27333 0.22277,-3.2251 0.35963,-5.47033 v 0.81609 0.0382 l 1.15082,0.0382 v -0.0382 l 0.46752,-3.22609 0.971,3.62138 c 0.66975,2.51217 1.13124,3.95187 1.81614,4.70524 0.17124,0.18836 0.37161,0.35309 0.66532,0.4463 0.29372,0.0932 0.66699,0.0712 0.93504,-0.0255 0.53611,-0.19333 0.84745,-0.54727 1.24073,-1.04561 0.5777,-0.73201 1.20335,-2.00854 1.81613,-3.54488 0.6128,-1.53633 1.20077,-3.31309 1.60036,-4.97302 0.47416,-1.96959 1.22224,-3.58345 2.01394,-4.69249 0.39586,-0.55452 0.79719,-0.97649 1.1688,-1.26239 0.37162,-0.28589 0.69817,-0.41293 0.8811,-0.43354 0.0569,-0.006 0.0988,-0.0126 0.0899,-0.0127 0.0932,0.002 0.15641,0.0256 0.26973,0.10201 0.11333,0.0765 0.2534,0.21709 0.37761,0.4463 0.24843,0.45843 0.43156,1.23147 0.43156,2.32074 10e-6,1.05997 0.21451,2.02498 0.59339,2.75429 0.18945,0.36466 0.42418,0.66381 0.71926,0.90535 0.29509,0.24154 0.69454,0.43355 1.1688,0.43355 -0.0107,0 0.13423,0.0297 0.34165,0.21677 0.20743,0.18705 0.44406,0.49508 0.66532,0.89259 0.44253,0.79502 0.8204,1.93734 1.00697,3.18784 0.15267,1.02325 0.29779,1.75396 0.46752,2.23149 0.0849,0.23876 0.10137,0.41527 0.41357,0.61206 0.15612,0.0984 0.50904,0.16049 0.73725,0.0893 0.22822,-0.0712 0.33234,-0.17674 0.41357,-0.26778 0.32495,-0.36414 0.5009,-0.90742 0.80918,-1.8617 0.30828,-0.95427 0.69217,-2.27944 1.15081,-4.00392 l 1.58238,-5.95488 2.15779,6.68171 c 0.6488,2.00426 1.14577,3.53966 1.54641,4.65424 0.40066,1.11458 0.66194,1.78122 1.00697,2.19323 0.0863,0.10301 0.17123,0.19614 0.34165,0.28053 0.17043,0.0844 0.50789,0.13148 0.73724,0.0638 0.45872,-0.13545 0.5052,-0.34998 0.62936,-0.58657 0.24832,-0.47318 0.4721,-1.21646 0.75522,-2.24423 v -0.0382 -0.0382 -0.89259 c 0.10676,0.35894 0.24397,0.65187 0.43156,0.87984 0.0938,0.114 0.20675,0.22113 0.3956,0.30604 0.18885,0.0849 0.48881,0.11201 0.71926,0.051 0.46091,-0.122 0.6048,-0.36498 0.7732,-0.66307 0.18023,-0.31896 0.36148,-0.52179 0.48551,-0.59931 0.12403,-0.0775 0.13824,-0.0664 0.2877,-0.0382 0.29893,0.0563 1.09071,0.5062 2.10384,1.45366 0.31278,0.29249 0.584,0.5323 0.8811,0.71407 0.29711,0.18178 0.63946,0.34808 1.0789,0.31879 0.43944,-0.0293 0.77647,-0.27149 0.971,-0.53556 0.19453,-0.26407 0.33081,-0.59483 0.44954,-1.03286 0.4749,-1.7521 0.658,-5.24736 0.86311,-11.48896 0.0325,-0.98686 0.0434,-1.34368 0.0719,-2.19323 0.20706,2.67109 0.54043,5.06483 0.95302,6.75821 0.23282,0.9555 0.47289,1.69802 0.75522,2.21873 0.14119,0.26036 0.27574,0.46661 0.50349,0.63757 0.11388,0.0855 0.27446,0.16731 0.4855,0.20402 0.21106,0.0367 0.4602,-0.002 0.62936,-0.0765 0.009,9.2e-4 0.0728,0.0137 0.16183,0.0638 0.1781,0.10016 0.43618,0.34413 0.70128,0.70133 0.53022,0.71439 1.07831,1.86446 1.43853,3.22609 0.51797,1.9579 1.0795,3.31901 1.69026,4.16969 0.3054,0.42533 0.59942,0.73444 1.04293,0.91809 0.44352,0.18365 1.07507,0.13405 1.45651,-0.10201 0.76289,-0.47211 1.13803,-1.357 1.49247,-2.72879 0.35445,-1.37178 0.59818,-3.23036 0.6833,-5.54683 0.0589,-1.60187 0.19773,-2.39647 0.32367,-3.26435 0.23816,0.71338 0.51088,1.38812 0.86311,1.91271 0.25706,0.38283 0.53058,0.69761 0.84513,0.9436 0.31458,0.24599 0.69567,0.4463 1.18678,0.4463 -0.0943,0 0.0643,0.0169 0.26973,0.24227 0.20547,0.22542 0.42794,0.59095 0.64734,1.05836 0.4388,0.93482 0.82838,2.25605 1.04293,3.71064 0.16361,1.1091 0.31178,1.92553 0.43156,2.43551 0.0599,0.25499 0.0871,0.41216 0.17981,0.57381 0.0232,0.0404 0.0472,0.083 0.10789,0.14026 0.0607,0.0573 0.19523,0.16084 0.44954,0.17852 0.25432,0.0177 0.46268,-0.0855 0.53945,-0.15302 0.0768,-0.0676 0.0853,-0.12267 0.10788,-0.16576 0.0905,-0.17233 0.1233,-0.32813 0.16184,-0.58656 0.0386,-0.25843 0.0734,-0.5974 0.10789,-1.02011 0.0689,-0.84542 0.1278,-2.03284 0.1978,-3.58313 0.11589,-2.56676 0.40672,-4.4074 0.84513,-5.52133 0.21921,-0.55696 0.4722,-0.91705 0.70128,-1.09662 0.22909,-0.17956 0.35362,-0.20232 0.61137,-0.16576 0.57947,0.0822 1.1744,-0.0593 1.61834,-0.34429 0.17085,-0.10967 0.26929,-0.32442 0.41358,-0.4718 v -2.14223 c -0.13063,0.38735 -0.25854,0.81609 -0.41358,1.09662 -0.24882,0.45022 -0.53342,0.75141 -0.7732,0.90534 -0.23978,0.15394 -0.39226,0.18665 -0.62936,0.15302 -0.60888,-0.0863 -1.24259,0.084 -1.67228,0.42079 -0.42969,0.33684 -0.72573,0.80494 -0.97101,1.42816 -0.49054,1.24643 -0.76391,3.117 -0.88109,5.7126 -0.0318,0.7044 -0.0594,1.06469 -0.0899,1.61942 -0.23054,-1.29216 -0.56918,-2.48473 -0.98899,-3.37911 -0.23846,-0.50803 -0.49837,-0.92838 -0.79119,-1.24963 -0.29281,-0.32125 -0.64265,-0.61206 -1.22275,-0.61206 0.005,0 -0.12395,-0.0223 -0.32366,-0.17852 -0.1997,-0.15617 -0.44092,-0.41814 -0.66532,-0.75233 -0.44878,-0.66839 -0.85473,-1.62851 -1.07889,-2.67778 -0.0601,-0.28125 -0.12704,-0.50091 -0.1978,-0.67582 -0.0353,-0.0875 -0.0732,-0.15332 -0.12587,-0.22953 -0.0527,-0.0762 -0.0955,-0.16919 -0.28771,-0.25503 -0.19222,-0.0858 -0.59289,-0.0638 -0.75522,0.0255 -0.16232,0.0893 -0.20408,0.16776 -0.25174,0.24228 -0.0953,0.14904 -0.15947,0.31211 -0.21578,0.5228 -0.22526,0.84276 -0.38381,2.45295 -0.46752,4.73075 -0.084,2.28741 -0.32742,4.11154 -0.66532,5.41932 -0.33789,1.30779 -0.86827,2.10438 -1.11486,2.25699 -0.12329,0.0763 -0.024,0.0677 -0.12587,0.0255 -0.10186,-0.0422 -0.3385,-0.23155 -0.59339,-0.58656 -0.50977,-0.71002 -1.07476,-2.03414 -1.58238,-3.95292 -0.37608,-1.42164 -0.93054,-2.62581 -1.54641,-3.45561 -0.30792,-0.4149 -0.6301,-0.73429 -1.02495,-0.95635 -0.19741,-0.11103 -0.41909,-0.19948 -0.6833,-0.22953 -0.16149,-0.0184 -0.32295,0.031 -0.4855,0.0638 -0.0464,-0.0456 -0.13513,-0.13689 -0.23376,-0.31878 -0.22855,-0.42153 -0.47519,-1.13779 -0.70128,-2.06572 -0.45217,-1.85586 -0.83436,-4.55704 -1.02495,-7.63806 -0.15817,-2.55705 -0.28107,-4.51291 -0.37761,-5.82736 -0.0483,-0.65722 -0.0858,-1.15272 -0.12587,-1.49191 -0.02,-0.1696 -0.0317,-0.29393 -0.054,-0.39529 -0.0111,-0.0507 -0.0288,-0.0953 -0.0539,-0.15302 -0.0126,-0.0288 -0.0146,-0.0649 -0.0719,-0.12751 -0.0287,-0.0313 -0.0831,-0.0683 -0.17981,-0.11476 -0.0967,-0.0465 -0.27001,-0.0863 -0.43156,-0.0638 -0.36634,0.0513 -0.3996,0.19192 -0.43156,0.24227 -0.032,0.0504 -0.0445,0.0734 -0.0539,0.10201 -0.0188,0.0572 -0.0254,0.1144 -0.0359,0.17853 -0.0212,0.12825 -0.0351,0.2947 -0.0539,0.5228 -0.0377,0.4562 -0.0676,1.13309 -0.10789,2.04022 -0.0806,1.81425 -0.18331,4.55164 -0.30569,8.27562 -0.20493,6.23617 -0.41461,9.77306 -0.84513,11.36145 -0.10762,0.3971 -0.23961,0.6648 -0.34165,0.80333 -0.10203,0.13854 -0.1109,0.10581 -0.0539,0.10201 0.057,-0.004 -0.0288,-3.5e-4 -0.21578,-0.11476 -0.18699,-0.11441 -0.43061,-0.31661 -0.71926,-0.58656 -1.05642,-0.98794 -1.81405,-1.58671 -2.7332,-1.75969 -0.45955,-0.0865 -0.97906,-0.003 -1.33063,0.21678 -0.31211,0.19508 -0.52363,0.48114 -0.71926,0.80333 -0.14888,-0.2861 -0.33658,-0.73056 -0.43156,-1.53016 -0.1124,-0.94636 -0.19443,-1.51039 -0.41358,-1.89995 -0.0548,-0.0974 -0.092,-0.21265 -0.30568,-0.31878 -0.10684,-0.0531 -0.28632,-0.0868 -0.44954,-0.0765 -0.16322,0.0103 -0.29418,0.0544 -0.37762,0.10201 -0.33371,0.19038 -0.34874,0.35963 -0.46752,0.61206 l -0.0359,0.0638 v 0.0638 3.68514 0.0255 c -0.21576,0.77786 -0.4026,1.25207 -0.55743,1.63217 -0.17893,-0.33026 -0.35661,-0.65764 -0.64734,-1.4664 -0.39447,-1.09744 -0.89767,-2.62463 -1.54641,-4.62874 l -2.78714,-8.59441 -1.11486,0.0127 -2.08586,7.88033 c -0.45759,1.7206 -0.83152,3.03294 -1.13283,3.96567 -0.13047,0.4039 -0.17715,0.43864 -0.28771,0.70132 -0.0928,-0.40418 -0.1876,-0.73164 -0.2877,-1.40265 -0.19598,-1.3136 -0.5829,-2.51352 -1.0789,-3.40461 -0.24798,-0.44554 -0.52913,-0.81163 -0.84513,-1.09661 -0.316,-0.28498 -0.70896,-0.52281 -1.24073,-0.52281 -0.0468,10e-6 -0.14569,-0.009 -0.30569,-0.14026 -0.15999,-0.13096 -0.34666,-0.36121 -0.50348,-0.66307 -0.31362,-0.60372 -0.52147,-1.49558 -0.52147,-2.47376 3e-5,-1.14883 -0.17007,-1.99876 -0.50348,-2.61403 -0.1667,-0.30763 -0.36522,-0.56202 -0.64734,-0.75233 -0.2821,-0.1903 -0.66344,-0.31024 -1.04293,-0.31878 -0.13487,-0.003 -0.23235,0.0172 -0.30568,0.0255 -0.57825,0.0652 -1.07299,0.31159 -1.54642,0.67582 -0.47341,0.36423 -0.93595,0.8504 -1.36659,1.45366 -0.86128,1.20653 -1.6136,2.88552 -2.10385,4.92201 -0.39145,1.62618 -0.96327,3.37667 -1.56439,4.88377 -0.60112,1.50711 -1.26149,2.7902 -1.72623,3.37911 -0.34797,0.44094 -0.65813,0.66789 -0.73725,0.70132 -0.017,-0.01 -0.0446,-0.0253 -0.12587,-0.11476 -0.40552,-0.44608 -0.98984,-1.93231 -1.6543,-4.42472 l -1.70825,-6.36292 -0.86311,0.0255 v -2.57577 -0.0255 -0.0127 c -0.0496,-0.32989 -0.0947,-0.59262 -0.14386,-0.79059 -0.0246,-0.099 -0.0587,-0.17826 -0.0899,-0.25502 -0.0312,-0.0768 -0.027,-0.13726 -0.1978,-0.26778 -0.0854,-0.0653 -0.29614,-0.17098 -0.53945,-0.14027 -0.2433,0.0307 -0.3584,0.13401 -0.41357,0.19127 -0.11034,0.11453 -0.11628,0.17498 -0.14386,0.25503 -0.0551,0.16011 -0.10072,0.36412 -0.14385,0.65032 -0.1725,1.14479 -0.34489,3.53457 -0.57541,7.35752 -0.16607,2.75447 -0.29144,4.8221 -0.41358,6.27367 -0.0109,0.12912 -0.0252,0.18675 -0.0359,0.30603 -0.15199,-0.70827 -0.28017,-1.25914 -0.4855,-2.32074 -0.26355,-1.36268 -0.48582,-2.43717 -0.6833,-3.2261 -0.19747,-0.78892 -0.34405,-1.26873 -0.55743,-1.59391 -0.0533,-0.0813 -0.095,-0.15364 -0.23376,-0.24228 -0.0694,-0.0443 -0.181,-0.0929 -0.32367,-0.11476 -0.14266,-0.0219 -0.31444,-0.004 -0.43155,0.0382 -0.23422,0.0842 -0.28533,0.18535 -0.34166,0.26778 -0.0563,0.0824 -0.10906,0.16259 -0.14385,0.25503 -0.13911,0.36977 -0.23502,0.93602 -0.34165,1.75968 l -0.25174,1.97646 -0.75522,-2.04021 -1.52844,-4.2972 -1.13284,0.0893 -0.25174,5.01127 c -0.0508,0.94414 -0.11377,1.69093 -0.21578,2.24424 -0.0947,0.51355 -0.24426,0.82309 -0.34164,0.9691 -0.12142,-0.0722 -0.34496,-0.2165 -0.64734,-0.5483 -0.39442,-0.43282 -0.70702,-0.74061 -1.09688,-0.94361 -0.19491,-0.10149 -0.43741,-0.19477 -0.73724,-0.17851 -0.29982,0.0163 -0.57136,0.16117 -0.71926,0.30603 -0.29579,0.28971 -0.38238,0.63489 -0.48551,1.14762 -0.10311,0.51273 -0.18189,1.18714 -0.23376,2.02746 -0.0462,0.74894 -0.15347,0.97633 -0.25174,1.3644 -0.27665,-0.5973 -0.63898,-1.14454 -1.09687,-1.56842 -0.49832,-0.46131 -1.09427,-0.79171 -1.79816,-0.85434 4.6e-4,4.4e-4 4.2e-4,-0.0123 0,-0.0127 -0.003,-0.003 -0.0333,-0.0149 -0.0719,-0.0638 -0.0874,-0.1104 -0.20655,-0.32817 -0.32367,-0.61207 -0.23423,-0.56778 -0.46264,-1.42485 -0.6833,-2.48651 -0.44132,-2.12331 -0.82024,-5.07118 -1.00697,-8.31387 l -0.70128,-11.80775 v -0.0255 h -1.15082 v 0.0255 l -0.44954,12.87886 c -0.15326,4.47008 -0.41153,7.53136 -0.79119,9.24472 -0.17046,0.76935 -0.40184,1.17789 -0.52146,1.33889 -0.0172,-0.0162 4.1e-4,-0.005 -0.018,-0.0255 -0.46332,-0.50841 -0.9703,-1.51019 -1.33064,-2.65227 -0.36033,-1.14209 -0.59485,-2.43545 -0.61137,-3.58313 -0.0113,-0.78702 -0.0517,-1.41798 -0.12588,-1.91271 -0.0741,-0.49471 -0.1446,-0.84633 -0.37761,-1.13487 -0.11649,-0.14426 -0.32386,-0.3012 -0.61137,-0.35703 -0.2875,-0.0558 -0.55722,0.0137 -0.75522,0.10201 -0.39602,0.17663 -0.6768,0.45149 -1.02495,0.84159 -0.31618,0.35429 -0.58371,0.5569 -0.70128,0.61206 -0.0899,-0.0744 -0.3015,-0.32729 -0.46752,-0.76508 -0.16836,-0.44394 -0.32236,-1.06831 -0.48551,-1.84894 -0.0668,-0.31948 -0.14616,-0.57032 -0.21577,-0.77783 -0.0696,-0.20752 -0.11656,-0.35524 -0.25175,-0.51006 -0.0676,-0.0774 -0.16224,-0.19209 -0.43156,-0.24228 -0.26929,-0.0502 -0.55819,0.0653 -0.66531,0.15302 -0.21424,0.17551 -0.2273,0.30051 -0.28771,0.48455 -0.2416,0.73618 -0.4037,2.25959 -0.50348,4.61599 -0.10674,2.52145 -0.41715,4.71094 -0.82715,6.42668 -0.41,1.71574 -0.94418,2.97352 -1.38458,3.54487 -0.0901,0.11689 -0.15191,0.18981 -0.21578,0.24228 -0.0401,-0.0418 -0.0874,-0.0667 -0.14385,-0.16577 -0.32471,-0.57039 -0.63964,-1.99892 -0.70129,-4.2972 -0.0326,-1.21348 -0.0929,-2.18766 -0.17981,-2.93281 -0.0869,-0.74515 -0.18239,-1.25395 -0.37762,-1.61943 -0.0976,-0.18273 -0.21129,-0.36949 -0.53944,-0.48455 -0.16406,-0.0575 -0.36962,-0.0709 -0.53945,-0.0382 -0.16982,0.0326 -0.29465,0.102 -0.39559,0.16576 -0.40375,0.25505 -0.62909,0.61772 -0.95303,1.17313 -0.1385,0.23751 -0.27135,0.40932 -0.37761,0.53556 -0.0117,-0.0209 -0.006,-0.0141 -0.018,-0.0382 -0.32289,-0.67432 -0.64328,-2.47905 -0.91706,-5.39382 l -0.70128,-7.88033 -1.11486,-0.10201 -2.3376,5.01128 z"
         style="fill:#000000;fill-opacity:1;stroke:none;stroke-width:0.91695148;stroke-miterlimit:4;stroke-dasharray:none;stroke-opacity:1" />
      <path
         inkscape:connector-curvature="0"
         inkscape:export-ydpi="90"
         inkscape:export-xdpi="90"
         inkscape:export-filename="/home/thp/path9359.png"
         id="path8423"
         d="m 354.78924,316.18256 c -0.15,0.0292 0.0403,1.39441 0.44702,4.29116 0.68151,4.85315 0.41608,5.51088 -2.14872,4.97153 -2.20647,-0.46397 -3.20212,-0.40247 -3.85872,0.2423 -0.48256,0.4739 -1.18884,0.25282 -1.59113,-0.47384 -0.38234,-0.69059 -0.67201,-0.86422 -1.01868,-0.45144 l 0.32276,1.42673 c -0.75534,1.7285 -0.95131,1.57497 -4.20415,-1.15604 l -3.48483,-2.92822 -1.37457,3.31314 c -1.20532,2.8973 -1.56075,3.10768 -2.51309,1.62446 -0.59979,-0.9341 -1.93245,-1.57954 -2.95869,-1.43847 -1.02625,0.14109 -2.01984,-0.37529 -2.19712,-1.15894 -0.19469,-0.86054 -0.96072,-1.15871 -1.89355,-1.03891 -0.0622,0.008 -0.13295,0.0204 -0.19643,0.032 -1.48433,0.27205 -3.28696,1.52777 -3.88824,3.19864 -0.49324,1.37059 -1.66015,3.03093 -2.57185,3.67994 -1.30901,0.93184 -2.13613,0.71058 -3.88535,-1.03304 l -2.23251,-2.21569 -0.32085,2.44032 -0.7531,-3.32902 c -0.61087,-0.94684 -0.69068,-0.16977 -0.47975,2.8312 0.30411,4.32678 0.23876,4.40118 -1.67212,1.9335 -1.50951,-1.94939 -1.99389,-2.15748 -2.12614,-0.84517 l -0.1765,1.7279 -1.93994,-1.43696 -1.86941,-1.44665 0.18192,1.96172 c 0.12919,1.49026 -0.37493,1.83528 -1.97977,1.4096 -1.64159,-0.43541 -2.07281,-0.18287 -1.98544,1.12728 0.064,0.9604 -0.40134,1.33334 -1.04293,0.85617 -0.62118,-0.46199 -1.91423,-0.73275 -2.88523,-0.59927 -0.97101,0.13348 -2.52085,-1.7643 -3.45614,-4.21621 l -1.72065,-4.45478 0.68505,5.02179 c 0.47643,3.48406 0.0488,4.85155 -1.4202,4.4619 -1.16508,-0.30902 -2.32538,-1.29996 -2.56479,-2.20541 -0.31559,-1.19344 -0.82824,-1.36309 -2.00125,-0.61462 -1.2175,0.77685 -1.9441,0.66425 -2.86828,-0.46005 -0.73101,-0.88928 -1.07839,-0.25737 -0.86578,1.57494 0.45975,3.96194 -2.79507,6.3357 -3.84666,2.80368 -0.54825,-1.84138 -1.12685,-2.11752 -2.17414,-1.12167 -1.03608,0.9852 -1.7582,0.56752 -2.80742,-1.60585 l -1.37682,-2.93491 -1.86398,2.24297 -1.87699,2.24981 -0.63737,-2.04572 c -0.5142,-1.62275 -1.90462,-2.06877 -3.00385,-1.57379 l 6.82009,30.14748 c 0.11162,-0.0869 0.21323,-0.17701 0.32883,-0.2828 1.14252,-1.04561 1.74658,-0.81373 2.55621,1.0742 1.00611,2.34611 1.00521,2.32004 1.56215,-1.06909 0.31552,-1.92008 0.93722,-2.77588 1.3606,-1.89573 0.72041,1.49764 0.87885,1.51488 2.91904,0.16998 1.199,-0.7904 3.03981,-2.45236 4.05429,-3.68657 l 1.87699,-2.24981 1.04773,2.7021 c 0.95042,2.39875 1.1628,2.49524 2.18258,0.83741 0.63049,-1.02503 1.37212,-1.5755 1.58753,-1.21413 0.21542,0.36137 1.4302,0.44779 2.73451,0.19029 1.41847,-0.28003 3.07017,0.41352 4.11118,1.70973 2.40758,2.99789 4.76357,3.04668 4.26865,0.0906 -0.42269,-2.52464 2.06693,-6.19141 2.82809,-4.15496 0.20115,0.53818 1.22482,0.69729 2.27807,0.3592 1.05479,-0.33861 2.15226,-0.0384 2.38806,0.65244 0.40442,1.18494 0.45875,1.16817 1.84042,-0.0963 1.27919,-1.17067 1.58872,-1.13939 2.31233,0.25338 0.60007,1.15502 1.01807,0.78512 1.55648,-1.3514 0.71067,-2.81998 0.8438,-2.76801 2.41968,1.37101 0.72047,1.89228 1.37476,2.87408 1.72641,2.67957 l -1.05257,-4.65279 1.13052,1.13876 2.28617,-2.30607 c 2.10634,-2.09019 2.45266,-2.20177 3.46344,-1.15352 0.61453,0.63733 2.16929,0.91236 3.42725,0.61575 3.13121,-0.73828 7.41655,0.25946 8.10872,1.88816 0.41529,0.97726 1.08882,0.57469 2.50183,-1.48135 1.8877,-2.74681 1.97504,-2.78406 3.29764,-1.30767 1.12812,1.25936 1.35075,1.11796 1.15248,-0.88639 -0.13155,-1.32972 0.57757,-2.39222 1.63428,-2.358 1.05669,0.0342 2.10896,-0.54201 2.34311,-1.28261 0.14923,-0.4721 0.7893,-0.28143 1.60161,0.39152 l 0.40816,1.80424 c 2.55672,3.26137 2.5782,3.25574 3.162,0.79377 0.76497,-3.22599 4.96229,-3.18546 6.80771,0.06 1.12434,1.97736 1.26858,1.78901 0.89475,-1.18967 -0.38874,-3.09751 -0.0889,-3.5354 2.64425,-3.29557 1.72893,0.15171 3.44077,0.90926 3.78524,1.68377 0.59263,1.33236 0.68264,1.30301 1.26449,-0.39121 0.61167,-1.78099 0.61549,-1.7818 2.30831,-0.60041 1.56417,1.09161 1.9039,0.95277 3.85637,-1.66758 1.76495,-2.36867 2.30506,-2.63545 3.12263,-1.5667 2.04382,2.67162 3.53955,3.53931 5.34,2.96135 1.02236,-0.32819 2.03943,-0.28032 2.20629,0.10619 0.0847,0.19637 0.3303,0.21232 0.64551,0.0882 l -6.80345,-30.07394 c -0.43244,0.45316 -0.73767,1.10714 -0.76624,1.95052 -0.0532,1.56837 -0.99068,2.5029 -2.61914,2.63493 -1.72836,0.14014 -2.38876,1.12788 -2.16927,3.14433 0.26339,2.42001 0.10059,2.59496 -0.92719,0.98181 -0.68714,-1.07848 -2.00875,-1.85719 -2.96549,-1.72567 -0.95675,0.13152 -2.29482,-0.39152 -2.94001,-1.16299 -0.64515,-0.77147 -0.9984,0.0474 -0.76797,1.81426 0.46769,3.58614 -2.17504,4.65183 -4.86942,1.94838 -0.96724,-0.97047 -2.53356,-1.51549 -3.48869,-1.20889 -0.96262,0.309 -2.48718,-1.32982 -3.40246,-3.6574 -0.75645,-1.92363 -1.15204,-2.93796 -1.2844,-2.91222 z"
         style="fill:url(#linearGradient10665);fill-opacity:1;stroke:none;stroke-width:11.78282738;stroke-miterlimit:4;stroke-dasharray:none;stroke-opacity:1" />
      <path
         inkscape:connector-curvature="0"
         inkscape:export-ydpi="90"
         inkscape:export-xdpi="90"
         id="path9359"
         d="m 271.00284,334.86429 v 2.60127 l 1.88806,-4.05493 1.38458,-3.00931 0.52146,5.77636 c 0.27533,2.9311 0.53636,4.70292 0.97101,5.61059 0.10867,0.22692 0.22643,0.40326 0.44954,0.56106 0.11156,0.0789 0.25758,0.15174 0.44953,0.17852 0.19197,0.0268 0.40835,0.002 0.55743,-0.051 0.29819,-0.10555 0.4481,-0.25952 0.61138,-0.44629 0.16328,-0.18678 0.32331,-0.42325 0.4855,-0.70133 0.16894,-0.28964 0.23406,-0.33226 0.35963,-0.48455 0.0836,0.25251 0.1889,0.50672 0.25174,1.04561 0.0835,0.71568 0.12955,1.67792 0.16183,2.8818 0.0627,2.33857 0.31238,3.78098 0.77321,4.59049 0.11522,0.20238 0.24219,0.37044 0.43156,0.51005 0.18939,0.13962 0.50019,0.2429 0.80917,0.22952 0.30899,-0.0134 0.55161,-0.12529 0.73724,-0.25502 0.18565,-0.12972 0.32237,-0.28348 0.46753,-0.4718 0.58065,-0.75328 1.08962,-2.03889 1.51044,-3.7999 0.42084,-1.761 0.73696,-3.98642 0.84514,-6.54144 0.0619,-1.46097 0.18024,-1.98183 0.2877,-2.77979 0.0966,0.37216 0.19972,0.80445 0.30569,1.08386 0.18821,0.49624 0.3646,0.85555 0.70128,1.12212 0.16835,0.13328 0.404,0.2527 0.6833,0.28053 0.27932,0.0278 0.54411,-0.0354 0.75523,-0.12752 0.42223,-0.18419 0.73424,-0.48627 1.09687,-0.89259 0.22262,-0.24942 0.34374,-0.32937 0.46752,-0.42079 0.0613,0.13077 0.14635,0.26871 0.1978,0.61206 0.0674,0.44999 0.0968,1.06335 0.10789,1.83619 0.0176,1.21921 0.26985,2.56522 0.64734,3.76165 0.37749,1.19643 0.85932,2.24504 1.47448,2.92006 0.20257,0.22227 0.41151,0.40888 0.79119,0.4973 0.18986,0.0442 0.42026,0.0313 0.61138,-0.0255 0.19112,-0.0568 0.34216,-0.14485 0.44953,-0.24227 0.42951,-0.38972 0.59149,-0.96049 0.79119,-1.8617 0.3994,-1.80243 0.65544,-4.86349 0.80917,-9.34674 l 0.018,-0.76508 c 0.19341,3.13846 0.55368,6.00273 0.98899,8.09711 0.22512,1.08304 0.47571,1.96735 0.73724,2.60127 0.13078,0.31697 0.25045,0.57164 0.41358,0.77783 0.0816,0.10311 0.17529,0.19563 0.30568,0.28053 0.13041,0.0849 0.33122,0.16577 0.57541,0.16577 0.18266,10e-6 0.64327,0.17054 1.0789,0.57381 0.43564,0.40328 0.84325,0.99268 1.07889,1.63217 0.1406,0.3815 0.22339,0.63002 0.53945,0.85434 0.079,0.0561 0.18791,0.10877 0.34165,0.14027 0.15375,0.0315 0.34541,0.0194 0.4855,-0.0255 0.2802,-0.0898 0.36783,-0.22277 0.44954,-0.34428 0.32687,-0.48606 0.44486,-1.25803 0.52147,-2.49927 0.0511,-0.82716 0.12234,-1.47367 0.21577,-1.93821 0.0757,-0.37613 0.17009,-0.54317 0.23377,-0.65031 0.15689,0.10402 0.38567,0.29124 0.70128,0.63756 0.39072,0.42875 0.71434,0.72666 1.1688,0.90535 0.22724,0.0894 0.5378,0.13755 0.82715,0.0638 0.28935,-0.0738 0.48267,-0.23381 0.61137,-0.3953 0.25742,-0.32297 0.37563,-0.74293 0.4855,-1.33889 0.10989,-0.59595 0.18221,-1.363 0.23377,-2.32074 l 0.10788,-2.14223 0.53945,1.51741 1.58238,4.29721 1.13283,-0.0638 0.55743,-4.2972 c 0.0231,-0.17846 0.0483,-0.20278 0.0719,-0.35704 0.009,0.0336 0.009,0.0291 0.018,0.0638 0.19253,0.76912 0.40275,1.81753 0.66532,3.17509 0.33319,1.72258 0.59796,3.0124 0.80917,3.81265 0.10561,0.40013 0.17354,0.66553 0.30568,0.87985 0.0331,0.0536 0.0662,0.0997 0.14386,0.16576 0.0776,0.0661 0.25436,0.17085 0.52147,0.16577 0.2671,-0.005 0.43123,-0.11989 0.50348,-0.19127 0.0722,-0.0714 0.0984,-0.12222 0.12587,-0.17852 0.10978,-0.22518 0.17121,-0.50681 0.23376,-0.9436 0.0626,-0.43678 0.11825,-1.01528 0.17981,-1.74693 0.10715,-1.27333 0.22278,-3.2251 0.35964,-5.47033 v 0.81609 0.0382 l 1.15082,0.0382 v -0.0382 l 0.46752,-3.22608 0.971,3.62138 c 0.66974,2.51217 1.13124,3.95187 1.81614,4.70524 0.17124,0.18835 0.37161,0.35308 0.66532,0.4463 0.29372,0.0932 0.66699,0.0712 0.93504,-0.0255 0.53611,-0.19333 0.84745,-0.54727 1.24072,-1.04561 0.57771,-0.73201 1.20336,-2.00854 1.81614,-3.54488 0.61279,-1.53633 1.20076,-3.3131 1.60036,-4.97302 0.47416,-1.96959 1.22224,-3.58345 2.01394,-4.6925 0.39585,-0.55451 0.79719,-0.97648 1.1688,-1.26238 0.37162,-0.28589 0.69817,-0.41293 0.88109,-0.43354 0.0569,-0.006 0.0988,-0.0126 0.0899,-0.0128 0.0932,0.002 0.1564,0.0256 0.26973,0.10201 0.11333,0.0765 0.2534,0.21708 0.37761,0.44629 0.24843,0.45844 0.43156,1.23148 0.43155,2.32075 2e-5,1.05996 0.21452,2.02498 0.5934,2.75429 0.18944,0.36466 0.42418,0.66381 0.71926,0.90535 0.29509,0.24154 0.69454,0.43355 1.1688,0.43354 -0.0107,10e-6 0.13423,0.0297 0.34165,0.21678 0.20743,0.18705 0.44406,0.49508 0.66532,0.89259 0.44253,0.79502 0.8204,1.93733 1.00697,3.18784 0.15267,1.02324 0.29779,1.75395 0.46752,2.23148 0.0849,0.23877 0.10137,0.41528 0.41357,0.61206 0.15612,0.0984 0.50904,0.1605 0.73724,0.0893 0.22822,-0.0712 0.33235,-0.17673 0.41358,-0.26777 0.32494,-0.36414 0.50089,-0.90742 0.80917,-1.8617 0.30829,-0.95427 0.69218,-2.27944 1.15082,-4.00392 l 1.58238,-5.95488 2.15779,6.6817 c 0.64879,2.00427 1.14576,3.53967 1.54641,4.65425 0.40066,1.11458 0.66194,1.78121 1.00697,2.19323 0.0863,0.103 0.17123,0.19614 0.34165,0.28053 0.17043,0.0844 0.50789,0.13148 0.73724,0.0638 0.45872,-0.13545 0.5052,-0.34997 0.62935,-0.58656 0.24833,-0.47318 0.47211,-1.21646 0.75523,-2.24423 v -0.0382 -0.0382 -0.89259 c 0.10675,0.35894 0.24396,0.65187 0.43156,0.87984 0.0938,0.11399 0.20675,0.22113 0.39559,0.30603 0.18886,0.0849 0.48882,0.11201 0.71926,0.051 0.46091,-0.122 0.6048,-0.36498 0.77321,-0.66307 0.18023,-0.31896 0.36148,-0.5218 0.4855,-0.59931 0.12404,-0.0775 0.13825,-0.0664 0.28771,-0.0382 0.29893,0.0563 1.0907,0.5062 2.10384,1.45365 0.31278,0.2925 0.584,0.53231 0.8811,0.71408 0.29711,0.18178 0.63946,0.34808 1.07889,0.31878 0.43945,-0.0293 0.77648,-0.27148 0.971,-0.53555 0.19454,-0.26407 0.33082,-0.59484 0.44954,-1.03286 0.47491,-1.75211 0.658,-5.24737 0.86312,-11.48896 0.0325,-0.98686 0.0434,-1.34368 0.0719,-2.19324 0.20706,2.6711 0.54043,5.06484 0.95302,6.75822 0.23282,0.9555 0.47289,1.69802 0.75522,2.21873 0.14118,0.26036 0.27574,0.4666 0.50348,0.63757 0.11389,0.0855 0.27447,0.16731 0.48551,0.20402 0.21105,0.0367 0.46019,-0.002 0.62935,-0.0765 0.009,9.2e-4 0.0728,0.0137 0.16184,0.0638 0.17809,0.10016 0.43617,0.34412 0.70128,0.70132 0.53022,0.7144 1.07831,1.86447 1.43852,3.2261 0.51797,1.95789 1.07951,3.31901 1.69027,4.16969 0.30539,0.42533 0.59942,0.73444 1.04293,0.91809 0.44352,0.18365 1.07507,0.13405 1.4565,-0.10201 0.76289,-0.47211 1.13803,-1.357 1.49248,-2.72879 0.35445,-1.37179 0.59818,-3.23036 0.68329,-5.54683 0.0589,-1.60187 0.19774,-2.39647 0.32367,-3.26435 0.23816,0.71338 0.51088,1.38811 0.86312,1.91271 0.25706,0.38283 0.53057,0.6976 0.84513,0.94359 0.31457,0.24599 0.69567,0.4463 1.18678,0.4463 -0.0943,0 0.0643,0.0169 0.26973,0.24228 0.20547,0.22541 0.42793,0.59095 0.64733,1.05836 0.43881,0.93482 0.82839,2.25604 1.04293,3.71064 0.16362,1.10909 0.31179,1.92553 0.43156,2.43551 0.0599,0.25499 0.0871,0.41216 0.17982,0.57381 0.0232,0.0404 0.0472,0.083 0.10789,0.14026 0.0607,0.0573 0.19523,0.16084 0.44954,0.17852 0.25431,0.0177 0.46268,-0.0855 0.53944,-0.15302 0.0768,-0.0675 0.0853,-0.12268 0.10789,-0.16576 0.0905,-0.17233 0.1233,-0.32814 0.16183,-0.58656 0.0386,-0.25843 0.0734,-0.5974 0.10789,-1.02011 0.0689,-0.84542 0.1278,-2.03284 0.1978,-3.58313 0.1159,-2.56677 0.40673,-4.4074 0.84513,-5.52133 0.21922,-0.55697 0.4722,-0.91705 0.70128,-1.09662 0.2291,-0.17957 0.35362,-0.20232 0.61138,-0.16577 0.57947,0.0822 1.1744,-0.0593 1.61834,-0.34428 0.17085,-0.10968 0.26929,-0.32443 0.41358,-0.4718 v -2.14223 c -0.13063,0.38735 -0.25854,0.81609 -0.41358,1.09662 -0.24883,0.45022 -0.53342,0.75141 -0.77321,0.90534 -0.23977,0.15394 -0.39225,0.18665 -0.62935,0.15302 -0.60888,-0.0864 -1.24259,0.084 -1.67229,0.42079 -0.42968,0.33683 -0.72573,0.80494 -0.971,1.42815 -0.49054,1.24644 -0.76391,3.11701 -0.8811,5.71261 -0.0318,0.70439 -0.0594,1.06469 -0.0899,1.61942 -0.23054,-1.29216 -0.56918,-2.48473 -0.98899,-3.37911 -0.23846,-0.50803 -0.49837,-0.92838 -0.79119,-1.24963 -0.29281,-0.32125 -0.64265,-0.61206 -1.22275,-0.61206 0.005,0 -0.12395,-0.0223 -0.32366,-0.17853 -0.19971,-0.15617 -0.44092,-0.41813 -0.66532,-0.75232 -0.44878,-0.66839 -0.85473,-1.62851 -1.0789,-2.67778 -0.0601,-0.28126 -0.12703,-0.50091 -0.19779,-0.67583 -0.0353,-0.0875 -0.0732,-0.15331 -0.12588,-0.22952 -0.0527,-0.0762 -0.0955,-0.16919 -0.2877,-0.25503 -0.19223,-0.0858 -0.59289,-0.0638 -0.75522,0.0255 -0.16233,0.0893 -0.20408,0.16776 -0.25175,0.24227 -0.0953,0.14905 -0.15946,0.31212 -0.21577,0.52281 -0.22527,0.84276 -0.38382,2.45295 -0.46753,4.73075 -0.084,2.2874 -0.32741,4.11154 -0.66531,5.41932 -0.33789,1.30779 -0.86827,2.10438 -1.11486,2.25699 -0.12329,0.0763 -0.024,0.0677 -0.12587,0.0255 -0.10186,-0.0422 -0.3385,-0.23155 -0.59339,-0.58656 -0.50978,-0.71002 -1.07476,-2.03414 -1.58238,-3.95292 -0.37608,-1.42164 -0.93054,-2.62581 -1.54642,-3.45561 -0.30791,-0.4149 -0.6301,-0.73429 -1.02494,-0.95636 -0.19742,-0.11102 -0.4191,-0.19947 -0.6833,-0.22952 -0.1615,-0.0184 -0.32295,0.031 -0.4855,0.0638 -0.0464,-0.0456 -0.13514,-0.13689 -0.23377,-0.31878 -0.22854,-0.42153 -0.47518,-1.13779 -0.70127,-2.06572 -0.45217,-1.85587 -0.83436,-4.55704 -1.02495,-7.63806 -0.15817,-2.55705 -0.28107,-4.51292 -0.37761,-5.82737 -0.0483,-0.65722 -0.0858,-1.15271 -0.12587,-1.4919 -0.02,-0.1696 -0.0317,-0.29394 -0.0539,-0.39529 -0.0111,-0.0507 -0.0288,-0.0953 -0.0539,-0.15302 -0.0126,-0.0288 -0.0146,-0.0649 -0.0719,-0.12751 -0.0287,-0.0313 -0.0831,-0.0683 -0.17982,-0.11477 -0.0967,-0.0465 -0.27001,-0.0863 -0.43156,-0.0637 -0.36634,0.0513 -0.39959,0.19192 -0.43155,0.24227 -0.032,0.0504 -0.0445,0.0734 -0.0539,0.10201 -0.0188,0.0573 -0.0254,0.1144 -0.0359,0.17852 -0.0212,0.12826 -0.0351,0.29471 -0.0539,0.52281 -0.0376,0.4562 -0.0676,1.13309 -0.10789,2.04022 -0.0806,1.81424 -0.1833,4.55164 -0.30569,8.27562 -0.20492,6.23617 -0.4146,9.77306 -0.84513,11.36145 -0.10761,0.3971 -0.2396,0.6648 -0.34165,0.80333 -0.10203,0.13854 -0.11089,0.10581 -0.0539,0.10201 0.057,-0.004 -0.0288,-3.5e-4 -0.21578,-0.11476 -0.18699,-0.11441 -0.43061,-0.31662 -0.71926,-0.58656 -1.05642,-0.98794 -1.81406,-1.58671 -2.7332,-1.75969 -0.45956,-0.0865 -0.97906,-0.003 -1.33063,0.21677 -0.31211,0.19509 -0.52363,0.48114 -0.71926,0.80334 -0.14888,-0.28611 -0.33659,-0.73057 -0.43156,-1.53016 -0.1124,-0.94636 -0.19443,-1.51039 -0.41358,-1.89995 -0.0548,-0.0974 -0.092,-0.21266 -0.30568,-0.31879 -0.10684,-0.0531 -0.28632,-0.0868 -0.44954,-0.0765 -0.16322,0.0103 -0.29418,0.0544 -0.37762,0.10202 -0.33371,0.19038 -0.34874,0.35963 -0.46752,0.61206 l -0.0359,0.0638 v 0.0637 3.68514 0.0255 c -0.21575,0.77787 -0.40259,1.25208 -0.55742,1.63218 -0.17893,-0.33027 -0.35662,-0.65764 -0.64734,-1.4664 -0.39447,-1.09744 -0.89767,-2.62463 -1.54641,-4.62874 l -2.78714,-8.59441 -1.11486,0.0127 -2.08586,7.88034 c -0.45759,1.7206 -0.83153,3.03294 -1.13284,3.96566 -0.13046,0.4039 -0.17714,0.43865 -0.2877,0.70133 -0.0928,-0.40418 -0.1876,-0.73164 -0.28771,-1.40265 -0.19597,-1.3136 -0.58289,-2.51353 -1.07889,-3.40461 -0.24799,-0.44554 -0.52913,-0.81164 -0.84514,-1.09661 -0.31599,-0.28498 -0.70895,-0.52281 -1.24072,-0.52281 -0.0468,10e-6 -0.14569,-0.009 -0.30569,-0.14027 -0.15999,-0.13095 -0.34667,-0.3612 -0.50348,-0.66307 -0.31362,-0.60371 -0.52147,-1.49557 -0.52147,-2.47376 2e-5,-1.14882 -0.17007,-1.99875 -0.50348,-2.61402 -0.1667,-0.30763 -0.36522,-0.56202 -0.64734,-0.75233 -0.2821,-0.1903 -0.66345,-0.31024 -1.04293,-0.31878 -0.13487,-0.003 -0.23235,0.0172 -0.30568,0.0255 -0.57825,0.0652 -1.07299,0.31159 -1.54642,0.67582 -0.47341,0.36423 -0.93596,0.85039 -1.3666,1.45366 -0.86127,1.20653 -1.61359,2.88551 -2.10384,4.92201 -0.39146,1.62618 -0.96327,3.37667 -1.56439,4.88377 -0.60112,1.5071 -1.26149,2.7902 -1.72623,3.37911 -0.34797,0.44094 -0.65814,0.66789 -0.73725,0.70132 -0.017,-0.01 -0.0446,-0.0253 -0.12587,-0.11476 -0.40553,-0.44608 -0.98985,-1.93231 -1.65431,-4.42472 l -1.70824,-6.36292 -0.86312,0.0255 v -2.57577 -0.0255 -0.0127 c -0.0495,-0.32988 -0.0947,-0.59261 -0.14385,-0.79058 -0.0246,-0.099 -0.0587,-0.17826 -0.0899,-0.25503 -0.0312,-0.0768 -0.027,-0.13725 -0.1978,-0.26777 -0.0854,-0.0653 -0.29613,-0.17099 -0.53944,-0.14027 -0.2433,0.0307 -0.3584,0.13401 -0.41358,0.19127 -0.11033,0.11453 -0.11627,0.17498 -0.14385,0.25503 -0.0552,0.1601 -0.10072,0.36412 -0.14385,0.65032 -0.1725,1.14479 -0.3449,3.53456 -0.57541,7.35752 -0.16608,2.75447 -0.29144,4.82209 -0.41358,6.27367 -0.0109,0.12912 -0.0252,0.18675 -0.0359,0.30603 -0.15199,-0.70827 -0.28017,-1.25915 -0.4855,-2.32075 -0.26355,-1.36267 -0.48582,-2.43716 -0.68331,-3.22609 -0.19746,-0.78893 -0.34405,-1.26873 -0.55742,-1.59392 -0.0533,-0.0813 -0.095,-0.15364 -0.23376,-0.24227 -0.0694,-0.0443 -0.181,-0.0929 -0.32367,-0.11477 -0.14266,-0.0219 -0.31444,-0.004 -0.43156,0.0382 -0.23421,0.0842 -0.28532,0.18535 -0.34165,0.26778 -0.0563,0.0824 -0.10907,0.16258 -0.14385,0.25503 -0.13912,0.36977 -0.23502,0.93602 -0.34165,1.75968 l -0.25174,1.97646 -0.75523,-2.04021 -1.52843,-4.29721 -1.13284,0.0893 -0.25174,5.01128 c -0.0508,0.94414 -0.11377,1.69093 -0.21578,2.24424 -0.0947,0.51355 -0.24426,0.82308 -0.34165,0.9691 -0.12141,-0.0722 -0.34495,-0.2165 -0.64733,-0.54831 -0.39442,-0.43281 -0.70703,-0.7406 -1.09688,-0.9436 -0.19491,-0.10149 -0.43742,-0.19478 -0.73724,-0.17851 -0.29982,0.0163 -0.57137,0.16117 -0.71927,0.30603 -0.29579,0.28971 -0.38237,0.63489 -0.4855,1.14762 -0.10311,0.51273 -0.18189,1.18713 -0.23376,2.02746 -0.0462,0.74894 -0.15347,0.97632 -0.25174,1.3644 -0.27665,-0.5973 -0.63898,-1.14454 -1.09687,-1.56842 -0.49833,-0.46131 -1.09428,-0.79171 -1.79816,-0.85434 4.6e-4,4.4e-4 4.2e-4,-0.0123 0,-0.0127 -0.003,-0.003 -0.0333,-0.0149 -0.0719,-0.0638 -0.0873,-0.1104 -0.20655,-0.32816 -0.32367,-0.61206 -0.23423,-0.56778 -0.46263,-1.42485 -0.68329,-2.48651 -0.44132,-2.12331 -0.82024,-5.07118 -1.00697,-8.31388 l -0.70128,-11.80774 v -0.0255 h -1.15082 v 0.0255 l -0.44954,12.87886 c -0.15326,4.47008 -0.41153,7.53136 -0.79119,9.24472 -0.17046,0.76935 -0.40184,1.17788 -0.52147,1.33889 -0.0172,-0.0162 4.1e-4,-0.005 -0.018,-0.0255 -0.46331,-0.50841 -0.97029,-1.51019 -1.33063,-2.65228 -0.36033,-1.14208 -0.59486,-2.43544 -0.61137,-3.58313 -0.0113,-0.78701 -0.0518,-1.41798 -0.12588,-1.9127 -0.0741,-0.49471 -0.14461,-0.84633 -0.37761,-1.13487 -0.11649,-0.14426 -0.32386,-0.3012 -0.61137,-0.35704 -0.2875,-0.0558 -0.55722,0.0137 -0.75523,0.10201 -0.39601,0.17664 -0.67679,0.4515 -1.02495,0.8416 -0.31617,0.35428 -0.5837,0.55689 -0.70128,0.61206 -0.0899,-0.0744 -0.30149,-0.32729 -0.46752,-0.76508 -0.16835,-0.44394 -0.32236,-1.06831 -0.4855,-1.84895 -0.0668,-0.31947 -0.14617,-0.57031 -0.21578,-0.77783 -0.0696,-0.20751 -0.11656,-0.35523 -0.25174,-0.51005 -0.0676,-0.0774 -0.16225,-0.19209 -0.43156,-0.24228 -0.2693,-0.0502 -0.55819,0.0653 -0.66532,0.15302 -0.21423,0.1755 -0.2273,0.30051 -0.2877,0.48455 -0.24161,0.73618 -0.4037,2.25959 -0.50348,4.61599 -0.10675,2.52144 -0.41715,4.71094 -0.82715,6.42668 -0.41001,1.71574 -0.94418,2.97352 -1.38459,3.54487 -0.0901,0.11689 -0.1519,0.18981 -0.21577,0.24227 -0.0401,-0.0418 -0.0874,-0.0666 -0.14386,-0.16576 -0.3247,-0.57039 -0.63963,-1.99893 -0.70128,-4.29721 -0.0326,-1.21347 -0.0929,-2.18765 -0.17981,-2.9328 -0.0869,-0.74515 -0.18239,-1.25395 -0.37762,-1.61943 -0.0976,-0.18273 -0.21129,-0.36949 -0.53944,-0.48455 -0.16406,-0.0575 -0.36962,-0.0709 -0.53945,-0.0382 -0.16982,0.0326 -0.29466,0.102 -0.39559,0.16576 -0.40375,0.25505 -0.62909,0.61772 -0.95303,1.17313 -0.1385,0.23751 -0.27136,0.40931 -0.37761,0.53556 -0.0117,-0.0209 -0.006,-0.0141 -0.018,-0.0382 -0.32289,-0.67432 -0.64329,-2.47905 -0.91706,-5.39382 l -0.70128,-7.88033 -1.11486,-0.10201 -2.3376,5.01128 z"
         style="fill:#ffffff;fill-opacity:1;stroke:none;stroke-width:0.91695148;stroke-miterlimit:4;stroke-dasharray:none;stroke-opacity:1" />
    </g>
  </g>
</svg>
